<?xml version="1.0" encoding="utf-8" standalone="no"?>
<!DOCTYPE svg PUBLIC "-//W3C//DTD SVG 1.1//EN"
  "http://www.w3.org/Graphics/SVG/1.1/DTD/svg11.dtd">
<svg xmlns:xlink="http://www.w3.org/1999/xlink" width="411.285625pt" height="310.86825pt" viewBox="0 0 411.285625 310.86825" xmlns="http://www.w3.org/2000/svg" version="1.1">
 <metadata>
  <rdf:RDF xmlns:dc="http://purl.org/dc/elements/1.1/" xmlns:cc="http://creativecommons.org/ns#" xmlns:rdf="http://www.w3.org/1999/02/22-rdf-syntax-ns#">
   <cc:Work>
    <dc:type rdf:resource="http://purl.org/dc/dcmitype/StillImage"/>
    <dc:date>2022-10-28T23:12:01.203735</dc:date>
    <dc:format>image/svg+xml</dc:format>
    <dc:creator>
     <cc:Agent>
      <dc:title>Matplotlib v3.6.1, https://matplotlib.org/</dc:title>
     </cc:Agent>
    </dc:creator>
   </cc:Work>
  </rdf:RDF>
 </metadata>
 <defs>
  <style type="text/css">*{stroke-linejoin: round; stroke-linecap: butt}</style>
 </defs>
 <g id="figure_1">
  <g id="patch_1">
   <path d="M 0 310.86825 
L 411.285625 310.86825 
L 411.285625 0 
L 0 0 
z
" style="fill: #ffffff"/>
  </g>
  <g id="axes_1">
   <g id="patch_2">
    <path d="M 46.965625 273.312 
L 404.085625 273.312 
L 404.085625 7.2 
L 46.965625 7.2 
z
" style="fill: #ffffff"/>
   </g>
   <g id="matplotlib.axis_1">
    <g id="xtick_1">
     <g id="line2d_1">
      <defs>
       <path id="m1768d15853" d="M 0 0 
L 0 3.5 
" style="stroke: #000000; stroke-width: 0.8"/>
      </defs>
      <g>
       <use xlink:href="#m1768d15853" x="61.394716" y="273.312" style="stroke: #000000; stroke-width: 0.8"/>
      </g>
     </g>
     <g id="text_1">
      <!-- 0 -->
      <g transform="translate(58.213466 287.910437) scale(0.1 -0.1)">
       <defs>
        <path id="DejaVuSans-30" d="M 2034 4250 
Q 1547 4250 1301 3770 
Q 1056 3291 1056 2328 
Q 1056 1369 1301 889 
Q 1547 409 2034 409 
Q 2525 409 2770 889 
Q 3016 1369 3016 2328 
Q 3016 3291 2770 3770 
Q 2525 4250 2034 4250 
z
M 2034 4750 
Q 2819 4750 3233 4129 
Q 3647 3509 3647 2328 
Q 3647 1150 3233 529 
Q 2819 -91 2034 -91 
Q 1250 -91 836 529 
Q 422 1150 422 2328 
Q 422 3509 836 4129 
Q 1250 4750 2034 4750 
z
" transform="scale(0.015625)"/>
       </defs>
       <use xlink:href="#DejaVuSans-30"/>
      </g>
     </g>
    </g>
    <g id="xtick_2">
     <g id="line2d_2">
      <g>
       <use xlink:href="#m1768d15853" x="106.485625" y="273.312" style="stroke: #000000; stroke-width: 0.8"/>
      </g>
     </g>
     <g id="text_2">
      <!-- 25 -->
      <g transform="translate(100.123125 287.910437) scale(0.1 -0.1)">
       <defs>
        <path id="DejaVuSans-32" d="M 1228 531 
L 3431 531 
L 3431 0 
L 469 0 
L 469 531 
Q 828 903 1448 1529 
Q 2069 2156 2228 2338 
Q 2531 2678 2651 2914 
Q 2772 3150 2772 3378 
Q 2772 3750 2511 3984 
Q 2250 4219 1831 4219 
Q 1534 4219 1204 4116 
Q 875 4013 500 3803 
L 500 4441 
Q 881 4594 1212 4672 
Q 1544 4750 1819 4750 
Q 2544 4750 2975 4387 
Q 3406 4025 3406 3419 
Q 3406 3131 3298 2873 
Q 3191 2616 2906 2266 
Q 2828 2175 2409 1742 
Q 1991 1309 1228 531 
z
" transform="scale(0.015625)"/>
        <path id="DejaVuSans-35" d="M 691 4666 
L 3169 4666 
L 3169 4134 
L 1269 4134 
L 1269 2991 
Q 1406 3038 1543 3061 
Q 1681 3084 1819 3084 
Q 2600 3084 3056 2656 
Q 3513 2228 3513 1497 
Q 3513 744 3044 326 
Q 2575 -91 1722 -91 
Q 1428 -91 1123 -41 
Q 819 9 494 109 
L 494 744 
Q 775 591 1075 516 
Q 1375 441 1709 441 
Q 2250 441 2565 725 
Q 2881 1009 2881 1497 
Q 2881 1984 2565 2268 
Q 2250 2553 1709 2553 
Q 1456 2553 1204 2497 
Q 953 2441 691 2322 
L 691 4666 
z
" transform="scale(0.015625)"/>
       </defs>
       <use xlink:href="#DejaVuSans-32"/>
       <use xlink:href="#DejaVuSans-35" x="63.623047"/>
      </g>
     </g>
    </g>
    <g id="xtick_3">
     <g id="line2d_3">
      <g>
       <use xlink:href="#m1768d15853" x="151.576534" y="273.312" style="stroke: #000000; stroke-width: 0.8"/>
      </g>
     </g>
     <g id="text_3">
      <!-- 50 -->
      <g transform="translate(145.214034 287.910437) scale(0.1 -0.1)">
       <use xlink:href="#DejaVuSans-35"/>
       <use xlink:href="#DejaVuSans-30" x="63.623047"/>
      </g>
     </g>
    </g>
    <g id="xtick_4">
     <g id="line2d_4">
      <g>
       <use xlink:href="#m1768d15853" x="196.667443" y="273.312" style="stroke: #000000; stroke-width: 0.8"/>
      </g>
     </g>
     <g id="text_4">
      <!-- 75 -->
      <g transform="translate(190.304943 287.910437) scale(0.1 -0.1)">
       <defs>
        <path id="DejaVuSans-37" d="M 525 4666 
L 3525 4666 
L 3525 4397 
L 1831 0 
L 1172 0 
L 2766 4134 
L 525 4134 
L 525 4666 
z
" transform="scale(0.015625)"/>
       </defs>
       <use xlink:href="#DejaVuSans-37"/>
       <use xlink:href="#DejaVuSans-35" x="63.623047"/>
      </g>
     </g>
    </g>
    <g id="xtick_5">
     <g id="line2d_5">
      <g>
       <use xlink:href="#m1768d15853" x="241.758352" y="273.312" style="stroke: #000000; stroke-width: 0.8"/>
      </g>
     </g>
     <g id="text_5">
      <!-- 100 -->
      <g transform="translate(232.214602 287.910437) scale(0.1 -0.1)">
       <defs>
        <path id="DejaVuSans-31" d="M 794 531 
L 1825 531 
L 1825 4091 
L 703 3866 
L 703 4441 
L 1819 4666 
L 2450 4666 
L 2450 531 
L 3481 531 
L 3481 0 
L 794 0 
L 794 531 
z
" transform="scale(0.015625)"/>
       </defs>
       <use xlink:href="#DejaVuSans-31"/>
       <use xlink:href="#DejaVuSans-30" x="63.623047"/>
       <use xlink:href="#DejaVuSans-30" x="127.246094"/>
      </g>
     </g>
    </g>
    <g id="xtick_6">
     <g id="line2d_6">
      <g>
       <use xlink:href="#m1768d15853" x="286.849261" y="273.312" style="stroke: #000000; stroke-width: 0.8"/>
      </g>
     </g>
     <g id="text_6">
      <!-- 125 -->
      <g transform="translate(277.305511 287.910437) scale(0.1 -0.1)">
       <use xlink:href="#DejaVuSans-31"/>
       <use xlink:href="#DejaVuSans-32" x="63.623047"/>
       <use xlink:href="#DejaVuSans-35" x="127.246094"/>
      </g>
     </g>
    </g>
    <g id="xtick_7">
     <g id="line2d_7">
      <g>
       <use xlink:href="#m1768d15853" x="331.94017" y="273.312" style="stroke: #000000; stroke-width: 0.8"/>
      </g>
     </g>
     <g id="text_7">
      <!-- 150 -->
      <g transform="translate(322.39642 287.910437) scale(0.1 -0.1)">
       <use xlink:href="#DejaVuSans-31"/>
       <use xlink:href="#DejaVuSans-35" x="63.623047"/>
       <use xlink:href="#DejaVuSans-30" x="127.246094"/>
      </g>
     </g>
    </g>
    <g id="xtick_8">
     <g id="line2d_8">
      <g>
       <use xlink:href="#m1768d15853" x="377.03108" y="273.312" style="stroke: #000000; stroke-width: 0.8"/>
      </g>
     </g>
     <g id="text_8">
      <!-- 175 -->
      <g transform="translate(367.48733 287.910437) scale(0.1 -0.1)">
       <use xlink:href="#DejaVuSans-31"/>
       <use xlink:href="#DejaVuSans-37" x="63.623047"/>
       <use xlink:href="#DejaVuSans-35" x="127.246094"/>
      </g>
     </g>
    </g>
    <g id="text_9">
     <!-- Number of redundant columns -->
     <g transform="translate(148.944375 301.588562) scale(0.1 -0.1)">
      <defs>
       <path id="DejaVuSans-4e" d="M 628 4666 
L 1478 4666 
L 3547 763 
L 3547 4666 
L 4159 4666 
L 4159 0 
L 3309 0 
L 1241 3903 
L 1241 0 
L 628 0 
L 628 4666 
z
" transform="scale(0.015625)"/>
       <path id="DejaVuSans-75" d="M 544 1381 
L 544 3500 
L 1119 3500 
L 1119 1403 
Q 1119 906 1312 657 
Q 1506 409 1894 409 
Q 2359 409 2629 706 
Q 2900 1003 2900 1516 
L 2900 3500 
L 3475 3500 
L 3475 0 
L 2900 0 
L 2900 538 
Q 2691 219 2414 64 
Q 2138 -91 1772 -91 
Q 1169 -91 856 284 
Q 544 659 544 1381 
z
M 1991 3584 
L 1991 3584 
z
" transform="scale(0.015625)"/>
       <path id="DejaVuSans-6d" d="M 3328 2828 
Q 3544 3216 3844 3400 
Q 4144 3584 4550 3584 
Q 5097 3584 5394 3201 
Q 5691 2819 5691 2113 
L 5691 0 
L 5113 0 
L 5113 2094 
Q 5113 2597 4934 2840 
Q 4756 3084 4391 3084 
Q 3944 3084 3684 2787 
Q 3425 2491 3425 1978 
L 3425 0 
L 2847 0 
L 2847 2094 
Q 2847 2600 2669 2842 
Q 2491 3084 2119 3084 
Q 1678 3084 1418 2786 
Q 1159 2488 1159 1978 
L 1159 0 
L 581 0 
L 581 3500 
L 1159 3500 
L 1159 2956 
Q 1356 3278 1631 3431 
Q 1906 3584 2284 3584 
Q 2666 3584 2933 3390 
Q 3200 3197 3328 2828 
z
" transform="scale(0.015625)"/>
       <path id="DejaVuSans-62" d="M 3116 1747 
Q 3116 2381 2855 2742 
Q 2594 3103 2138 3103 
Q 1681 3103 1420 2742 
Q 1159 2381 1159 1747 
Q 1159 1113 1420 752 
Q 1681 391 2138 391 
Q 2594 391 2855 752 
Q 3116 1113 3116 1747 
z
M 1159 2969 
Q 1341 3281 1617 3432 
Q 1894 3584 2278 3584 
Q 2916 3584 3314 3078 
Q 3713 2572 3713 1747 
Q 3713 922 3314 415 
Q 2916 -91 2278 -91 
Q 1894 -91 1617 61 
Q 1341 213 1159 525 
L 1159 0 
L 581 0 
L 581 4863 
L 1159 4863 
L 1159 2969 
z
" transform="scale(0.015625)"/>
       <path id="DejaVuSans-65" d="M 3597 1894 
L 3597 1613 
L 953 1613 
Q 991 1019 1311 708 
Q 1631 397 2203 397 
Q 2534 397 2845 478 
Q 3156 559 3463 722 
L 3463 178 
Q 3153 47 2828 -22 
Q 2503 -91 2169 -91 
Q 1331 -91 842 396 
Q 353 884 353 1716 
Q 353 2575 817 3079 
Q 1281 3584 2069 3584 
Q 2775 3584 3186 3129 
Q 3597 2675 3597 1894 
z
M 3022 2063 
Q 3016 2534 2758 2815 
Q 2500 3097 2075 3097 
Q 1594 3097 1305 2825 
Q 1016 2553 972 2059 
L 3022 2063 
z
" transform="scale(0.015625)"/>
       <path id="DejaVuSans-72" d="M 2631 2963 
Q 2534 3019 2420 3045 
Q 2306 3072 2169 3072 
Q 1681 3072 1420 2755 
Q 1159 2438 1159 1844 
L 1159 0 
L 581 0 
L 581 3500 
L 1159 3500 
L 1159 2956 
Q 1341 3275 1631 3429 
Q 1922 3584 2338 3584 
Q 2397 3584 2469 3576 
Q 2541 3569 2628 3553 
L 2631 2963 
z
" transform="scale(0.015625)"/>
       <path id="DejaVuSans-20" transform="scale(0.015625)"/>
       <path id="DejaVuSans-6f" d="M 1959 3097 
Q 1497 3097 1228 2736 
Q 959 2375 959 1747 
Q 959 1119 1226 758 
Q 1494 397 1959 397 
Q 2419 397 2687 759 
Q 2956 1122 2956 1747 
Q 2956 2369 2687 2733 
Q 2419 3097 1959 3097 
z
M 1959 3584 
Q 2709 3584 3137 3096 
Q 3566 2609 3566 1747 
Q 3566 888 3137 398 
Q 2709 -91 1959 -91 
Q 1206 -91 779 398 
Q 353 888 353 1747 
Q 353 2609 779 3096 
Q 1206 3584 1959 3584 
z
" transform="scale(0.015625)"/>
       <path id="DejaVuSans-66" d="M 2375 4863 
L 2375 4384 
L 1825 4384 
Q 1516 4384 1395 4259 
Q 1275 4134 1275 3809 
L 1275 3500 
L 2222 3500 
L 2222 3053 
L 1275 3053 
L 1275 0 
L 697 0 
L 697 3053 
L 147 3053 
L 147 3500 
L 697 3500 
L 697 3744 
Q 697 4328 969 4595 
Q 1241 4863 1831 4863 
L 2375 4863 
z
" transform="scale(0.015625)"/>
       <path id="DejaVuSans-64" d="M 2906 2969 
L 2906 4863 
L 3481 4863 
L 3481 0 
L 2906 0 
L 2906 525 
Q 2725 213 2448 61 
Q 2172 -91 1784 -91 
Q 1150 -91 751 415 
Q 353 922 353 1747 
Q 353 2572 751 3078 
Q 1150 3584 1784 3584 
Q 2172 3584 2448 3432 
Q 2725 3281 2906 2969 
z
M 947 1747 
Q 947 1113 1208 752 
Q 1469 391 1925 391 
Q 2381 391 2643 752 
Q 2906 1113 2906 1747 
Q 2906 2381 2643 2742 
Q 2381 3103 1925 3103 
Q 1469 3103 1208 2742 
Q 947 2381 947 1747 
z
" transform="scale(0.015625)"/>
       <path id="DejaVuSans-6e" d="M 3513 2113 
L 3513 0 
L 2938 0 
L 2938 2094 
Q 2938 2591 2744 2837 
Q 2550 3084 2163 3084 
Q 1697 3084 1428 2787 
Q 1159 2491 1159 1978 
L 1159 0 
L 581 0 
L 581 3500 
L 1159 3500 
L 1159 2956 
Q 1366 3272 1645 3428 
Q 1925 3584 2291 3584 
Q 2894 3584 3203 3211 
Q 3513 2838 3513 2113 
z
" transform="scale(0.015625)"/>
       <path id="DejaVuSans-61" d="M 2194 1759 
Q 1497 1759 1228 1600 
Q 959 1441 959 1056 
Q 959 750 1161 570 
Q 1363 391 1709 391 
Q 2188 391 2477 730 
Q 2766 1069 2766 1631 
L 2766 1759 
L 2194 1759 
z
M 3341 1997 
L 3341 0 
L 2766 0 
L 2766 531 
Q 2569 213 2275 61 
Q 1981 -91 1556 -91 
Q 1019 -91 701 211 
Q 384 513 384 1019 
Q 384 1609 779 1909 
Q 1175 2209 1959 2209 
L 2766 2209 
L 2766 2266 
Q 2766 2663 2505 2880 
Q 2244 3097 1772 3097 
Q 1472 3097 1187 3025 
Q 903 2953 641 2809 
L 641 3341 
Q 956 3463 1253 3523 
Q 1550 3584 1831 3584 
Q 2591 3584 2966 3190 
Q 3341 2797 3341 1997 
z
" transform="scale(0.015625)"/>
       <path id="DejaVuSans-74" d="M 1172 4494 
L 1172 3500 
L 2356 3500 
L 2356 3053 
L 1172 3053 
L 1172 1153 
Q 1172 725 1289 603 
Q 1406 481 1766 481 
L 2356 481 
L 2356 0 
L 1766 0 
Q 1100 0 847 248 
Q 594 497 594 1153 
L 594 3053 
L 172 3053 
L 172 3500 
L 594 3500 
L 594 4494 
L 1172 4494 
z
" transform="scale(0.015625)"/>
       <path id="DejaVuSans-63" d="M 3122 3366 
L 3122 2828 
Q 2878 2963 2633 3030 
Q 2388 3097 2138 3097 
Q 1578 3097 1268 2742 
Q 959 2388 959 1747 
Q 959 1106 1268 751 
Q 1578 397 2138 397 
Q 2388 397 2633 464 
Q 2878 531 3122 666 
L 3122 134 
Q 2881 22 2623 -34 
Q 2366 -91 2075 -91 
Q 1284 -91 818 406 
Q 353 903 353 1747 
Q 353 2603 823 3093 
Q 1294 3584 2113 3584 
Q 2378 3584 2631 3529 
Q 2884 3475 3122 3366 
z
" transform="scale(0.015625)"/>
       <path id="DejaVuSans-6c" d="M 603 4863 
L 1178 4863 
L 1178 0 
L 603 0 
L 603 4863 
z
" transform="scale(0.015625)"/>
       <path id="DejaVuSans-73" d="M 2834 3397 
L 2834 2853 
Q 2591 2978 2328 3040 
Q 2066 3103 1784 3103 
Q 1356 3103 1142 2972 
Q 928 2841 928 2578 
Q 928 2378 1081 2264 
Q 1234 2150 1697 2047 
L 1894 2003 
Q 2506 1872 2764 1633 
Q 3022 1394 3022 966 
Q 3022 478 2636 193 
Q 2250 -91 1575 -91 
Q 1294 -91 989 -36 
Q 684 19 347 128 
L 347 722 
Q 666 556 975 473 
Q 1284 391 1588 391 
Q 1994 391 2212 530 
Q 2431 669 2431 922 
Q 2431 1156 2273 1281 
Q 2116 1406 1581 1522 
L 1381 1569 
Q 847 1681 609 1914 
Q 372 2147 372 2553 
Q 372 3047 722 3315 
Q 1072 3584 1716 3584 
Q 2034 3584 2315 3537 
Q 2597 3491 2834 3397 
z
" transform="scale(0.015625)"/>
      </defs>
      <use xlink:href="#DejaVuSans-4e"/>
      <use xlink:href="#DejaVuSans-75" x="74.804688"/>
      <use xlink:href="#DejaVuSans-6d" x="138.183594"/>
      <use xlink:href="#DejaVuSans-62" x="235.595703"/>
      <use xlink:href="#DejaVuSans-65" x="299.072266"/>
      <use xlink:href="#DejaVuSans-72" x="360.595703"/>
      <use xlink:href="#DejaVuSans-20" x="401.708984"/>
      <use xlink:href="#DejaVuSans-6f" x="433.496094"/>
      <use xlink:href="#DejaVuSans-66" x="494.677734"/>
      <use xlink:href="#DejaVuSans-20" x="529.882812"/>
      <use xlink:href="#DejaVuSans-72" x="561.669922"/>
      <use xlink:href="#DejaVuSans-65" x="600.533203"/>
      <use xlink:href="#DejaVuSans-64" x="662.056641"/>
      <use xlink:href="#DejaVuSans-75" x="725.533203"/>
      <use xlink:href="#DejaVuSans-6e" x="788.912109"/>
      <use xlink:href="#DejaVuSans-64" x="852.291016"/>
      <use xlink:href="#DejaVuSans-61" x="915.767578"/>
      <use xlink:href="#DejaVuSans-6e" x="977.046875"/>
      <use xlink:href="#DejaVuSans-74" x="1040.425781"/>
      <use xlink:href="#DejaVuSans-20" x="1079.634766"/>
      <use xlink:href="#DejaVuSans-63" x="1111.421875"/>
      <use xlink:href="#DejaVuSans-6f" x="1166.402344"/>
      <use xlink:href="#DejaVuSans-6c" x="1227.583984"/>
      <use xlink:href="#DejaVuSans-75" x="1255.367188"/>
      <use xlink:href="#DejaVuSans-6d" x="1318.746094"/>
      <use xlink:href="#DejaVuSans-6e" x="1416.158203"/>
      <use xlink:href="#DejaVuSans-73" x="1479.537109"/>
     </g>
    </g>
   </g>
   <g id="matplotlib.axis_2">
    <g id="ytick_1">
     <g id="line2d_9">
      <defs>
       <path id="mae02c1c81e" d="M 0 0 
L -3.5 0 
" style="stroke: #000000; stroke-width: 0.8"/>
      </defs>
      <g>
       <use xlink:href="#mae02c1c81e" x="46.965625" y="259.454041" style="stroke: #000000; stroke-width: 0.8"/>
      </g>
     </g>
     <g id="text_10">
      <!-- 0 -->
      <g transform="translate(33.603125 263.25326) scale(0.1 -0.1)">
       <use xlink:href="#DejaVuSans-30"/>
      </g>
     </g>
    </g>
    <g id="ytick_2">
     <g id="line2d_10">
      <g>
       <use xlink:href="#mae02c1c81e" x="46.965625" y="212.631479" style="stroke: #000000; stroke-width: 0.8"/>
      </g>
     </g>
     <g id="text_11">
      <!-- 20 -->
      <g transform="translate(27.240625 216.430698) scale(0.1 -0.1)">
       <use xlink:href="#DejaVuSans-32"/>
       <use xlink:href="#DejaVuSans-30" x="63.623047"/>
      </g>
     </g>
    </g>
    <g id="ytick_3">
     <g id="line2d_11">
      <g>
       <use xlink:href="#mae02c1c81e" x="46.965625" y="165.808917" style="stroke: #000000; stroke-width: 0.8"/>
      </g>
     </g>
     <g id="text_12">
      <!-- 40 -->
      <g transform="translate(27.240625 169.608136) scale(0.1 -0.1)">
       <defs>
        <path id="DejaVuSans-34" d="M 2419 4116 
L 825 1625 
L 2419 1625 
L 2419 4116 
z
M 2253 4666 
L 3047 4666 
L 3047 1625 
L 3713 1625 
L 3713 1100 
L 3047 1100 
L 3047 0 
L 2419 0 
L 2419 1100 
L 313 1100 
L 313 1709 
L 2253 4666 
z
" transform="scale(0.015625)"/>
       </defs>
       <use xlink:href="#DejaVuSans-34"/>
       <use xlink:href="#DejaVuSans-30" x="63.623047"/>
      </g>
     </g>
    </g>
    <g id="ytick_4">
     <g id="line2d_12">
      <g>
       <use xlink:href="#mae02c1c81e" x="46.965625" y="118.986355" style="stroke: #000000; stroke-width: 0.8"/>
      </g>
     </g>
     <g id="text_13">
      <!-- 60 -->
      <g transform="translate(27.240625 122.785574) scale(0.1 -0.1)">
       <defs>
        <path id="DejaVuSans-36" d="M 2113 2584 
Q 1688 2584 1439 2293 
Q 1191 2003 1191 1497 
Q 1191 994 1439 701 
Q 1688 409 2113 409 
Q 2538 409 2786 701 
Q 3034 994 3034 1497 
Q 3034 2003 2786 2293 
Q 2538 2584 2113 2584 
z
M 3366 4563 
L 3366 3988 
Q 3128 4100 2886 4159 
Q 2644 4219 2406 4219 
Q 1781 4219 1451 3797 
Q 1122 3375 1075 2522 
Q 1259 2794 1537 2939 
Q 1816 3084 2150 3084 
Q 2853 3084 3261 2657 
Q 3669 2231 3669 1497 
Q 3669 778 3244 343 
Q 2819 -91 2113 -91 
Q 1303 -91 875 529 
Q 447 1150 447 2328 
Q 447 3434 972 4092 
Q 1497 4750 2381 4750 
Q 2619 4750 2861 4703 
Q 3103 4656 3366 4563 
z
" transform="scale(0.015625)"/>
       </defs>
       <use xlink:href="#DejaVuSans-36"/>
       <use xlink:href="#DejaVuSans-30" x="63.623047"/>
      </g>
     </g>
    </g>
    <g id="ytick_5">
     <g id="line2d_13">
      <g>
       <use xlink:href="#mae02c1c81e" x="46.965625" y="72.163793" style="stroke: #000000; stroke-width: 0.8"/>
      </g>
     </g>
     <g id="text_14">
      <!-- 80 -->
      <g transform="translate(27.240625 75.963011) scale(0.1 -0.1)">
       <defs>
        <path id="DejaVuSans-38" d="M 2034 2216 
Q 1584 2216 1326 1975 
Q 1069 1734 1069 1313 
Q 1069 891 1326 650 
Q 1584 409 2034 409 
Q 2484 409 2743 651 
Q 3003 894 3003 1313 
Q 3003 1734 2745 1975 
Q 2488 2216 2034 2216 
z
M 1403 2484 
Q 997 2584 770 2862 
Q 544 3141 544 3541 
Q 544 4100 942 4425 
Q 1341 4750 2034 4750 
Q 2731 4750 3128 4425 
Q 3525 4100 3525 3541 
Q 3525 3141 3298 2862 
Q 3072 2584 2669 2484 
Q 3125 2378 3379 2068 
Q 3634 1759 3634 1313 
Q 3634 634 3220 271 
Q 2806 -91 2034 -91 
Q 1263 -91 848 271 
Q 434 634 434 1313 
Q 434 1759 690 2068 
Q 947 2378 1403 2484 
z
M 1172 3481 
Q 1172 3119 1398 2916 
Q 1625 2713 2034 2713 
Q 2441 2713 2670 2916 
Q 2900 3119 2900 3481 
Q 2900 3844 2670 4047 
Q 2441 4250 2034 4250 
Q 1625 4250 1398 4047 
Q 1172 3844 1172 3481 
z
" transform="scale(0.015625)"/>
       </defs>
       <use xlink:href="#DejaVuSans-38"/>
       <use xlink:href="#DejaVuSans-30" x="63.623047"/>
      </g>
     </g>
    </g>
    <g id="ytick_6">
     <g id="line2d_14">
      <g>
       <use xlink:href="#mae02c1c81e" x="46.965625" y="25.34123" style="stroke: #000000; stroke-width: 0.8"/>
      </g>
     </g>
     <g id="text_15">
      <!-- 100 -->
      <g transform="translate(20.878125 29.140449) scale(0.1 -0.1)">
       <use xlink:href="#DejaVuSans-31"/>
       <use xlink:href="#DejaVuSans-30" x="63.623047"/>
       <use xlink:href="#DejaVuSans-30" x="127.246094"/>
      </g>
     </g>
    </g>
    <g id="text_16">
     <!-- Dimension of solution space -->
     <g transform="translate(14.798438 210.88725) rotate(-90) scale(0.1 -0.1)">
      <defs>
       <path id="DejaVuSans-44" d="M 1259 4147 
L 1259 519 
L 2022 519 
Q 2988 519 3436 956 
Q 3884 1394 3884 2338 
Q 3884 3275 3436 3711 
Q 2988 4147 2022 4147 
L 1259 4147 
z
M 628 4666 
L 1925 4666 
Q 3281 4666 3915 4102 
Q 4550 3538 4550 2338 
Q 4550 1131 3912 565 
Q 3275 0 1925 0 
L 628 0 
L 628 4666 
z
" transform="scale(0.015625)"/>
       <path id="DejaVuSans-69" d="M 603 3500 
L 1178 3500 
L 1178 0 
L 603 0 
L 603 3500 
z
M 603 4863 
L 1178 4863 
L 1178 4134 
L 603 4134 
L 603 4863 
z
" transform="scale(0.015625)"/>
       <path id="DejaVuSans-70" d="M 1159 525 
L 1159 -1331 
L 581 -1331 
L 581 3500 
L 1159 3500 
L 1159 2969 
Q 1341 3281 1617 3432 
Q 1894 3584 2278 3584 
Q 2916 3584 3314 3078 
Q 3713 2572 3713 1747 
Q 3713 922 3314 415 
Q 2916 -91 2278 -91 
Q 1894 -91 1617 61 
Q 1341 213 1159 525 
z
M 3116 1747 
Q 3116 2381 2855 2742 
Q 2594 3103 2138 3103 
Q 1681 3103 1420 2742 
Q 1159 2381 1159 1747 
Q 1159 1113 1420 752 
Q 1681 391 2138 391 
Q 2594 391 2855 752 
Q 3116 1113 3116 1747 
z
" transform="scale(0.015625)"/>
      </defs>
      <use xlink:href="#DejaVuSans-44"/>
      <use xlink:href="#DejaVuSans-69" x="77.001953"/>
      <use xlink:href="#DejaVuSans-6d" x="104.785156"/>
      <use xlink:href="#DejaVuSans-65" x="202.197266"/>
      <use xlink:href="#DejaVuSans-6e" x="263.720703"/>
      <use xlink:href="#DejaVuSans-73" x="327.099609"/>
      <use xlink:href="#DejaVuSans-69" x="379.199219"/>
      <use xlink:href="#DejaVuSans-6f" x="406.982422"/>
      <use xlink:href="#DejaVuSans-6e" x="468.164062"/>
      <use xlink:href="#DejaVuSans-20" x="531.542969"/>
      <use xlink:href="#DejaVuSans-6f" x="563.330078"/>
      <use xlink:href="#DejaVuSans-66" x="624.511719"/>
      <use xlink:href="#DejaVuSans-20" x="659.716797"/>
      <use xlink:href="#DejaVuSans-73" x="691.503906"/>
      <use xlink:href="#DejaVuSans-6f" x="743.603516"/>
      <use xlink:href="#DejaVuSans-6c" x="804.785156"/>
      <use xlink:href="#DejaVuSans-75" x="832.568359"/>
      <use xlink:href="#DejaVuSans-74" x="895.947266"/>
      <use xlink:href="#DejaVuSans-69" x="935.15625"/>
      <use xlink:href="#DejaVuSans-6f" x="962.939453"/>
      <use xlink:href="#DejaVuSans-6e" x="1024.121094"/>
      <use xlink:href="#DejaVuSans-20" x="1087.5"/>
      <use xlink:href="#DejaVuSans-73" x="1119.287109"/>
      <use xlink:href="#DejaVuSans-70" x="1171.386719"/>
      <use xlink:href="#DejaVuSans-61" x="1234.863281"/>
      <use xlink:href="#DejaVuSans-63" x="1296.142578"/>
      <use xlink:href="#DejaVuSans-65" x="1351.123047"/>
     </g>
    </g>
   </g>
   <g id="LineCollection_1">
    <path d="M 63.198352 257.581139 
L 63.198352 253.367108 
" clip-path="url(#p455061f842)" style="fill: none; stroke: #1f77b4; stroke-width: 1.5"/>
    <path d="M 81.234716 258.049365 
L 81.234716 252.898883 
" clip-path="url(#p455061f842)" style="fill: none; stroke: #1f77b4; stroke-width: 1.5"/>
    <path d="M 99.27108 256.973177 
L 99.27108 253.97507 
" clip-path="url(#p455061f842)" style="fill: none; stroke: #1f77b4; stroke-width: 1.5"/>
    <path d="M 117.307443 257.664908 
L 117.307443 252.346888 
" clip-path="url(#p455061f842)" style="fill: none; stroke: #1f77b4; stroke-width: 1.5"/>
    <path d="M 135.343807 258.049365 
L 135.343807 248.216626 
" clip-path="url(#p455061f842)" style="fill: none; stroke: #1f77b4; stroke-width: 1.5"/>
    <path d="M 153.38017 254.415654 
L 153.38017 240.612922 
" clip-path="url(#p455061f842)" style="fill: none; stroke: #1f77b4; stroke-width: 1.5"/>
    <path d="M 171.416534 225.741797 
L 171.416534 215.440833 
" clip-path="url(#p455061f842)" style="fill: none; stroke: #1f77b4; stroke-width: 1.5"/>
    <path d="M 189.452898 212.989569 
L 189.452898 191.203237 
" clip-path="url(#p455061f842)" style="fill: none; stroke: #1f77b4; stroke-width: 1.5"/>
    <path d="M 207.489261 181.419944 
L 207.489261 167.522238 
" clip-path="url(#p455061f842)" style="fill: none; stroke: #1f77b4; stroke-width: 1.5"/>
    <path d="M 225.525625 162.446751 
L 225.525625 139.204643 
" clip-path="url(#p455061f842)" style="fill: none; stroke: #1f77b4; stroke-width: 1.5"/>
    <path d="M 243.561989 134.699059 
L 243.561989 108.424133 
" clip-path="url(#p455061f842)" style="fill: none; stroke: #1f77b4; stroke-width: 1.5"/>
   </g>
   <g id="LineCollection_2">
    <path d="M 63.198352 256.746288 
L 63.198352 252.329057 
" clip-path="url(#p455061f842)" style="fill: none; stroke: #ff7f0e; stroke-width: 1.5"/>
    <path d="M 81.234716 257.541845 
L 81.234716 252.001725 
" clip-path="url(#p455061f842)" style="fill: none; stroke: #ff7f0e; stroke-width: 1.5"/>
    <path d="M 99.27108 257.826928 
L 99.27108 253.121319 
" clip-path="url(#p455061f842)" style="fill: none; stroke: #ff7f0e; stroke-width: 1.5"/>
    <path d="M 117.307443 258.685636 
L 117.307443 254.60374 
" clip-path="url(#p455061f842)" style="fill: none; stroke: #ff7f0e; stroke-width: 1.5"/>
    <path d="M 135.343807 254.961475 
L 135.343807 251.304516 
" clip-path="url(#p455061f842)" style="fill: none; stroke: #ff7f0e; stroke-width: 1.5"/>
    <path d="M 153.38017 259.26784 
L 153.38017 251.212182 
" clip-path="url(#p455061f842)" style="fill: none; stroke: #ff7f0e; stroke-width: 1.5"/>
    <path d="M 171.416534 251.433978 
L 171.416534 233.293634 
" clip-path="url(#p455061f842)" style="fill: none; stroke: #ff7f0e; stroke-width: 1.5"/>
    <path d="M 189.452898 241.340739 
L 189.452898 212.952208 
" clip-path="url(#p455061f842)" style="fill: none; stroke: #ff7f0e; stroke-width: 1.5"/>
    <path d="M 207.489261 218.185217 
L 207.489261 187.880491 
" clip-path="url(#p455061f842)" style="fill: none; stroke: #ff7f0e; stroke-width: 1.5"/>
    <path d="M 225.525625 186.905043 
L 225.525625 169.996975 
" clip-path="url(#p455061f842)" style="fill: none; stroke: #ff7f0e; stroke-width: 1.5"/>
    <path d="M 243.561989 164.358247 
L 243.561989 140.570727 
" clip-path="url(#p455061f842)" style="fill: none; stroke: #ff7f0e; stroke-width: 1.5"/>
    <path d="M 261.598352 143.578838 
L 261.598352 107.504189 
" clip-path="url(#p455061f842)" style="fill: none; stroke: #ff7f0e; stroke-width: 1.5"/>
    <path d="M 279.634716 119.45458 
L 279.634716 98.852653 
" clip-path="url(#p455061f842)" style="fill: none; stroke: #ff7f0e; stroke-width: 1.5"/>
   </g>
   <g id="LineCollection_3">
    <path d="M 63.198352 257.829827 
L 63.198352 254.054871 
" clip-path="url(#p455061f842)" style="fill: none; stroke: #2ca02c; stroke-width: 1.5"/>
    <path d="M 81.234716 258.390428 
L 81.234716 251.621368 
" clip-path="url(#p455061f842)" style="fill: none; stroke: #2ca02c; stroke-width: 1.5"/>
    <path d="M 99.27108 257.214514 
L 99.27108 252.797282 
" clip-path="url(#p455061f842)" style="fill: none; stroke: #2ca02c; stroke-width: 1.5"/>
    <path d="M 117.307443 258.095728 
L 117.307443 253.320745 
" clip-path="url(#p455061f842)" style="fill: none; stroke: #2ca02c; stroke-width: 1.5"/>
    <path d="M 135.343807 259.052036 
L 135.343807 252.364437 
" clip-path="url(#p455061f842)" style="fill: none; stroke: #2ca02c; stroke-width: 1.5"/>
    <path d="M 153.38017 257.761483 
L 153.38017 252.718539 
" clip-path="url(#p455061f842)" style="fill: none; stroke: #2ca02c; stroke-width: 1.5"/>
    <path d="M 171.416534 261.216 
L 171.416534 245.518217 
" clip-path="url(#p455061f842)" style="fill: none; stroke: #2ca02c; stroke-width: 1.5"/>
    <path d="M 189.452898 255.405154 
L 189.452898 241.96455 
" clip-path="url(#p455061f842)" style="fill: none; stroke: #2ca02c; stroke-width: 1.5"/>
    <path d="M 207.489261 244.682496 
L 207.489261 222.720768 
" clip-path="url(#p455061f842)" style="fill: none; stroke: #2ca02c; stroke-width: 1.5"/>
    <path d="M 225.525625 201.819547 
L 225.525625 191.60407 
" clip-path="url(#p455061f842)" style="fill: none; stroke: #2ca02c; stroke-width: 1.5"/>
    <path d="M 243.561989 204.357223 
L 243.561989 161.441082 
" clip-path="url(#p455061f842)" style="fill: none; stroke: #2ca02c; stroke-width: 1.5"/>
    <path d="M 261.598352 166.299165 
L 261.598352 126.455943 
" clip-path="url(#p455061f842)" style="fill: none; stroke: #2ca02c; stroke-width: 1.5"/>
    <path d="M 279.634716 148.509461 
L 279.634716 104.446469 
" clip-path="url(#p455061f842)" style="fill: none; stroke: #2ca02c; stroke-width: 1.5"/>
    <path d="M 297.67108 124.033214 
L 297.67108 92.401117 
" clip-path="url(#p455061f842)" style="fill: none; stroke: #2ca02c; stroke-width: 1.5"/>
    <path d="M 315.707443 121.287598 
L 315.707443 77.35416 
" clip-path="url(#p455061f842)" style="fill: none; stroke: #2ca02c; stroke-width: 1.5"/>
   </g>
   <g id="LineCollection_4">
    <path d="M 63.198352 256.597387 
L 63.198352 252.009732 
" clip-path="url(#p455061f842)" style="fill: none; stroke: #d62728; stroke-width: 1.5"/>
    <path d="M 81.234716 258.224417 
L 81.234716 251.787379 
" clip-path="url(#p455061f842)" style="fill: none; stroke: #d62728; stroke-width: 1.5"/>
    <path d="M 99.27108 257.761483 
L 99.27108 252.718539 
" clip-path="url(#p455061f842)" style="fill: none; stroke: #d62728; stroke-width: 1.5"/>
    <path d="M 117.307443 257.280959 
L 117.307443 253.199063 
" clip-path="url(#p455061f842)" style="fill: none; stroke: #d62728; stroke-width: 1.5"/>
    <path d="M 135.343807 257.664908 
L 135.343807 252.346888 
" clip-path="url(#p455061f842)" style="fill: none; stroke: #d62728; stroke-width: 1.5"/>
    <path d="M 153.38017 258.563954 
L 153.38017 253.78897 
" clip-path="url(#p455061f842)" style="fill: none; stroke: #d62728; stroke-width: 1.5"/>
    <path d="M 171.416534 258.315206 
L 171.416534 253.101267 
" clip-path="url(#p455061f842)" style="fill: none; stroke: #d62728; stroke-width: 1.5"/>
    <path d="M 189.452898 257.010995 
L 189.452898 250.659673 
" clip-path="url(#p455061f842)" style="fill: none; stroke: #d62728; stroke-width: 1.5"/>
    <path d="M 207.489261 254.296354 
L 207.489261 223.876099 
" clip-path="url(#p455061f842)" style="fill: none; stroke: #d62728; stroke-width: 1.5"/>
    <path d="M 225.525625 231.817575 
L 225.525625 212.174408 
" clip-path="url(#p455061f842)" style="fill: none; stroke: #d62728; stroke-width: 1.5"/>
    <path d="M 243.561989 206.785543 
L 243.561989 182.892269 
" clip-path="url(#p455061f842)" style="fill: none; stroke: #d62728; stroke-width: 1.5"/>
    <path d="M 261.598352 197.726177 
L 261.598352 147.001975 
" clip-path="url(#p455061f842)" style="fill: none; stroke: #d62728; stroke-width: 1.5"/>
    <path d="M 279.634716 161.402155 
L 279.634716 138.844563 
" clip-path="url(#p455061f842)" style="fill: none; stroke: #d62728; stroke-width: 1.5"/>
    <path d="M 297.67108 159.508295 
L 297.67108 129.969233 
" clip-path="url(#p455061f842)" style="fill: none; stroke: #d62728; stroke-width: 1.5"/>
    <path d="M 315.707443 120.108958 
L 315.707443 89.301989 
" clip-path="url(#p455061f842)" style="fill: none; stroke: #d62728; stroke-width: 1.5"/>
    <path d="M 333.743807 98.825487 
L 333.743807 66.572252 
" clip-path="url(#p455061f842)" style="fill: none; stroke: #d62728; stroke-width: 1.5"/>
    <path d="M 351.78017 71.031437 
L 351.78017 46.607288 
" clip-path="url(#p455061f842)" style="fill: none; stroke: #d62728; stroke-width: 1.5"/>
   </g>
   <g id="LineCollection_5">
    <path d="M 63.198352 257.853916 
L 63.198352 253.562557 
" clip-path="url(#p455061f842)" style="fill: none; stroke: #9467bd; stroke-width: 1.5"/>
    <path d="M 81.234716 258.095728 
L 81.234716 253.320745 
" clip-path="url(#p455061f842)" style="fill: none; stroke: #9467bd; stroke-width: 1.5"/>
    <path d="M 99.27108 257.214514 
L 99.27108 252.797282 
" clip-path="url(#p455061f842)" style="fill: none; stroke: #9467bd; stroke-width: 1.5"/>
    <path d="M 117.307443 256.865754 
L 117.307443 252.677817 
" clip-path="url(#p455061f842)" style="fill: none; stroke: #9467bd; stroke-width: 1.5"/>
    <path d="M 135.343807 258.341292 
L 135.343807 253.543407 
" clip-path="url(#p455061f842)" style="fill: none; stroke: #9467bd; stroke-width: 1.5"/>
    <path d="M 153.38017 258.563954 
L 153.38017 253.78897 
" clip-path="url(#p455061f842)" style="fill: none; stroke: #9467bd; stroke-width: 1.5"/>
    <path d="M 171.416534 258.095728 
L 171.416534 253.320745 
" clip-path="url(#p455061f842)" style="fill: none; stroke: #9467bd; stroke-width: 1.5"/>
    <path d="M 189.452898 257.395383 
L 189.452898 251.679961 
" clip-path="url(#p455061f842)" style="fill: none; stroke: #9467bd; stroke-width: 1.5"/>
    <path d="M 207.489261 260.169096 
L 207.489261 238.605285 
" clip-path="url(#p455061f842)" style="fill: none; stroke: #9467bd; stroke-width: 1.5"/>
    <path d="M 225.525625 255.155859 
L 225.525625 242.213845 
" clip-path="url(#p455061f842)" style="fill: none; stroke: #9467bd; stroke-width: 1.5"/>
    <path d="M 243.561989 235.295102 
L 243.561989 200.268821 
" clip-path="url(#p455061f842)" style="fill: none; stroke: #9467bd; stroke-width: 1.5"/>
    <path d="M 261.598352 220.207988 
L 261.598352 189.135299 
" clip-path="url(#p455061f842)" style="fill: none; stroke: #9467bd; stroke-width: 1.5"/>
    <path d="M 279.634716 196.198939 
L 279.634716 156.957274 
" clip-path="url(#p455061f842)" style="fill: none; stroke: #9467bd; stroke-width: 1.5"/>
    <path d="M 297.67108 170.076894 
L 297.67108 133.447403 
" clip-path="url(#p455061f842)" style="fill: none; stroke: #9467bd; stroke-width: 1.5"/>
    <path d="M 315.707443 156.379719 
L 315.707443 115.773461 
" clip-path="url(#p455061f842)" style="fill: none; stroke: #9467bd; stroke-width: 1.5"/>
    <path d="M 333.743807 112.46716 
L 333.743807 88.0475 
" clip-path="url(#p455061f842)" style="fill: none; stroke: #9467bd; stroke-width: 1.5"/>
    <path d="M 351.78017 107.58704 
L 351.78017 65.770534 
" clip-path="url(#p455061f842)" style="fill: none; stroke: #9467bd; stroke-width: 1.5"/>
    <path d="M 369.816534 79.83461 
L 369.816534 42.954597 
" clip-path="url(#p455061f842)" style="fill: none; stroke: #9467bd; stroke-width: 1.5"/>
    <path d="M 387.852898 40.282748 
L 387.852898 19.296 
" clip-path="url(#p455061f842)" style="fill: none; stroke: #9467bd; stroke-width: 1.5"/>
   </g>
   <g id="line2d_15">
    <path d="M 63.198352 255.474124 
L 81.234716 255.474124 
L 99.27108 255.474124 
L 117.307443 255.005898 
L 135.343807 253.132996 
L 153.38017 247.514288 
L 171.416534 220.591315 
L 189.452898 202.096403 
L 207.489261 174.471091 
L 225.525625 150.825697 
L 243.561989 121.561596 
" clip-path="url(#p455061f842)" style="fill: none; stroke: #1f77b4; stroke-width: 1.5; stroke-linecap: square"/>
    <defs>
     <path id="mf4b4edfbd8" d="M 0 -3 
L -0.673542 -0.927051 
L -2.85317 -0.927051 
L -1.089814 0.354102 
L -1.763356 2.427051 
L -0 1.145898 
L 1.763356 2.427051 
L 1.089814 0.354102 
L 2.85317 -0.927051 
L 0.673542 -0.927051 
z
" style="stroke: #1f77b4; stroke-linejoin: bevel"/>
    </defs>
    <g clip-path="url(#p455061f842)">
     <use xlink:href="#mf4b4edfbd8" x="63.198352" y="255.474124" style="fill: #1f77b4; stroke: #1f77b4; stroke-linejoin: bevel"/>
     <use xlink:href="#mf4b4edfbd8" x="81.234716" y="255.474124" style="fill: #1f77b4; stroke: #1f77b4; stroke-linejoin: bevel"/>
     <use xlink:href="#mf4b4edfbd8" x="99.27108" y="255.474124" style="fill: #1f77b4; stroke: #1f77b4; stroke-linejoin: bevel"/>
     <use xlink:href="#mf4b4edfbd8" x="117.307443" y="255.005898" style="fill: #1f77b4; stroke: #1f77b4; stroke-linejoin: bevel"/>
     <use xlink:href="#mf4b4edfbd8" x="135.343807" y="253.132996" style="fill: #1f77b4; stroke: #1f77b4; stroke-linejoin: bevel"/>
     <use xlink:href="#mf4b4edfbd8" x="153.38017" y="247.514288" style="fill: #1f77b4; stroke: #1f77b4; stroke-linejoin: bevel"/>
     <use xlink:href="#mf4b4edfbd8" x="171.416534" y="220.591315" style="fill: #1f77b4; stroke: #1f77b4; stroke-linejoin: bevel"/>
     <use xlink:href="#mf4b4edfbd8" x="189.452898" y="202.096403" style="fill: #1f77b4; stroke: #1f77b4; stroke-linejoin: bevel"/>
     <use xlink:href="#mf4b4edfbd8" x="207.489261" y="174.471091" style="fill: #1f77b4; stroke: #1f77b4; stroke-linejoin: bevel"/>
     <use xlink:href="#mf4b4edfbd8" x="225.525625" y="150.825697" style="fill: #1f77b4; stroke: #1f77b4; stroke-linejoin: bevel"/>
     <use xlink:href="#mf4b4edfbd8" x="243.561989" y="121.561596" style="fill: #1f77b4; stroke: #1f77b4; stroke-linejoin: bevel"/>
    </g>
   </g>
   <g id="line2d_16">
    <path d="M 63.198352 254.537672 
L 81.234716 254.771785 
L 99.27108 255.474124 
L 117.307443 256.644688 
L 135.343807 253.132996 
L 153.38017 255.240011 
L 171.416534 242.363806 
L 189.452898 227.146474 
L 207.489261 203.032854 
L 225.525625 178.451009 
L 243.561989 152.464487 
L 261.598352 125.541514 
L 279.634716 109.153617 
" clip-path="url(#p455061f842)" style="fill: none; stroke: #ff7f0e; stroke-width: 1.5; stroke-linecap: square"/>
    <defs>
     <path id="mb677130558" d="M 0 -3 
L -0.673542 -0.927051 
L -2.85317 -0.927051 
L -1.089814 0.354102 
L -1.763356 2.427051 
L -0 1.145898 
L 1.763356 2.427051 
L 1.089814 0.354102 
L 2.85317 -0.927051 
L 0.673542 -0.927051 
z
" style="stroke: #ff7f0e; stroke-linejoin: bevel"/>
    </defs>
    <g clip-path="url(#p455061f842)">
     <use xlink:href="#mb677130558" x="63.198352" y="254.537672" style="fill: #ff7f0e; stroke: #ff7f0e; stroke-linejoin: bevel"/>
     <use xlink:href="#mb677130558" x="81.234716" y="254.771785" style="fill: #ff7f0e; stroke: #ff7f0e; stroke-linejoin: bevel"/>
     <use xlink:href="#mb677130558" x="99.27108" y="255.474124" style="fill: #ff7f0e; stroke: #ff7f0e; stroke-linejoin: bevel"/>
     <use xlink:href="#mb677130558" x="117.307443" y="256.644688" style="fill: #ff7f0e; stroke: #ff7f0e; stroke-linejoin: bevel"/>
     <use xlink:href="#mb677130558" x="135.343807" y="253.132996" style="fill: #ff7f0e; stroke: #ff7f0e; stroke-linejoin: bevel"/>
     <use xlink:href="#mb677130558" x="153.38017" y="255.240011" style="fill: #ff7f0e; stroke: #ff7f0e; stroke-linejoin: bevel"/>
     <use xlink:href="#mb677130558" x="171.416534" y="242.363806" style="fill: #ff7f0e; stroke: #ff7f0e; stroke-linejoin: bevel"/>
     <use xlink:href="#mb677130558" x="189.452898" y="227.146474" style="fill: #ff7f0e; stroke: #ff7f0e; stroke-linejoin: bevel"/>
     <use xlink:href="#mb677130558" x="207.489261" y="203.032854" style="fill: #ff7f0e; stroke: #ff7f0e; stroke-linejoin: bevel"/>
     <use xlink:href="#mb677130558" x="225.525625" y="178.451009" style="fill: #ff7f0e; stroke: #ff7f0e; stroke-linejoin: bevel"/>
     <use xlink:href="#mb677130558" x="243.561989" y="152.464487" style="fill: #ff7f0e; stroke: #ff7f0e; stroke-linejoin: bevel"/>
     <use xlink:href="#mb677130558" x="261.598352" y="125.541514" style="fill: #ff7f0e; stroke: #ff7f0e; stroke-linejoin: bevel"/>
     <use xlink:href="#mb677130558" x="279.634716" y="109.153617" style="fill: #ff7f0e; stroke: #ff7f0e; stroke-linejoin: bevel"/>
    </g>
   </g>
   <g id="line2d_17">
    <path d="M 63.198352 255.942349 
L 81.234716 255.005898 
L 99.27108 255.005898 
L 117.307443 255.708236 
L 135.343807 255.708236 
L 153.38017 255.240011 
L 171.416534 253.367108 
L 189.452898 248.684852 
L 207.489261 233.701632 
L 225.525625 196.711808 
L 243.561989 182.899152 
L 261.598352 146.377554 
L 279.634716 126.477965 
L 297.67108 108.217166 
L 315.707443 99.320879 
" clip-path="url(#p455061f842)" style="fill: none; stroke: #2ca02c; stroke-width: 1.5; stroke-linecap: square"/>
    <defs>
     <path id="mc760c2670a" d="M 0 -3 
L -0.673542 -0.927051 
L -2.85317 -0.927051 
L -1.089814 0.354102 
L -1.763356 2.427051 
L -0 1.145898 
L 1.763356 2.427051 
L 1.089814 0.354102 
L 2.85317 -0.927051 
L 0.673542 -0.927051 
z
" style="stroke: #2ca02c; stroke-linejoin: bevel"/>
    </defs>
    <g clip-path="url(#p455061f842)">
     <use xlink:href="#mc760c2670a" x="63.198352" y="255.942349" style="fill: #2ca02c; stroke: #2ca02c; stroke-linejoin: bevel"/>
     <use xlink:href="#mc760c2670a" x="81.234716" y="255.005898" style="fill: #2ca02c; stroke: #2ca02c; stroke-linejoin: bevel"/>
     <use xlink:href="#mc760c2670a" x="99.27108" y="255.005898" style="fill: #2ca02c; stroke: #2ca02c; stroke-linejoin: bevel"/>
     <use xlink:href="#mc760c2670a" x="117.307443" y="255.708236" style="fill: #2ca02c; stroke: #2ca02c; stroke-linejoin: bevel"/>
     <use xlink:href="#mc760c2670a" x="135.343807" y="255.708236" style="fill: #2ca02c; stroke: #2ca02c; stroke-linejoin: bevel"/>
     <use xlink:href="#mc760c2670a" x="153.38017" y="255.240011" style="fill: #2ca02c; stroke: #2ca02c; stroke-linejoin: bevel"/>
     <use xlink:href="#mc760c2670a" x="171.416534" y="253.367108" style="fill: #2ca02c; stroke: #2ca02c; stroke-linejoin: bevel"/>
     <use xlink:href="#mc760c2670a" x="189.452898" y="248.684852" style="fill: #2ca02c; stroke: #2ca02c; stroke-linejoin: bevel"/>
     <use xlink:href="#mc760c2670a" x="207.489261" y="233.701632" style="fill: #2ca02c; stroke: #2ca02c; stroke-linejoin: bevel"/>
     <use xlink:href="#mc760c2670a" x="225.525625" y="196.711808" style="fill: #2ca02c; stroke: #2ca02c; stroke-linejoin: bevel"/>
     <use xlink:href="#mc760c2670a" x="243.561989" y="182.899152" style="fill: #2ca02c; stroke: #2ca02c; stroke-linejoin: bevel"/>
     <use xlink:href="#mc760c2670a" x="261.598352" y="146.377554" style="fill: #2ca02c; stroke: #2ca02c; stroke-linejoin: bevel"/>
     <use xlink:href="#mc760c2670a" x="279.634716" y="126.477965" style="fill: #2ca02c; stroke: #2ca02c; stroke-linejoin: bevel"/>
     <use xlink:href="#mc760c2670a" x="297.67108" y="108.217166" style="fill: #2ca02c; stroke: #2ca02c; stroke-linejoin: bevel"/>
     <use xlink:href="#mc760c2670a" x="315.707443" y="99.320879" style="fill: #2ca02c; stroke: #2ca02c; stroke-linejoin: bevel"/>
    </g>
   </g>
   <g id="line2d_18">
    <path d="M 63.198352 254.30356 
L 81.234716 255.005898 
L 99.27108 255.240011 
L 117.307443 255.240011 
L 135.343807 255.005898 
L 153.38017 256.176462 
L 171.416534 255.708236 
L 189.452898 253.835334 
L 207.489261 239.086227 
L 225.525625 221.995992 
L 243.561989 194.838906 
L 261.598352 172.364076 
L 279.634716 150.123359 
L 297.67108 144.738764 
L 315.707443 104.705473 
L 333.743807 82.698869 
L 351.78017 58.819362 
" clip-path="url(#p455061f842)" style="fill: none; stroke: #d62728; stroke-width: 1.5; stroke-linecap: square"/>
    <defs>
     <path id="mad45b8d22a" d="M 0 -3 
L -0.673542 -0.927051 
L -2.85317 -0.927051 
L -1.089814 0.354102 
L -1.763356 2.427051 
L -0 1.145898 
L 1.763356 2.427051 
L 1.089814 0.354102 
L 2.85317 -0.927051 
L 0.673542 -0.927051 
z
" style="stroke: #d62728; stroke-linejoin: bevel"/>
    </defs>
    <g clip-path="url(#p455061f842)">
     <use xlink:href="#mad45b8d22a" x="63.198352" y="254.30356" style="fill: #d62728; stroke: #d62728; stroke-linejoin: bevel"/>
     <use xlink:href="#mad45b8d22a" x="81.234716" y="255.005898" style="fill: #d62728; stroke: #d62728; stroke-linejoin: bevel"/>
     <use xlink:href="#mad45b8d22a" x="99.27108" y="255.240011" style="fill: #d62728; stroke: #d62728; stroke-linejoin: bevel"/>
     <use xlink:href="#mad45b8d22a" x="117.307443" y="255.240011" style="fill: #d62728; stroke: #d62728; stroke-linejoin: bevel"/>
     <use xlink:href="#mad45b8d22a" x="135.343807" y="255.005898" style="fill: #d62728; stroke: #d62728; stroke-linejoin: bevel"/>
     <use xlink:href="#mad45b8d22a" x="153.38017" y="256.176462" style="fill: #d62728; stroke: #d62728; stroke-linejoin: bevel"/>
     <use xlink:href="#mad45b8d22a" x="171.416534" y="255.708236" style="fill: #d62728; stroke: #d62728; stroke-linejoin: bevel"/>
     <use xlink:href="#mad45b8d22a" x="189.452898" y="253.835334" style="fill: #d62728; stroke: #d62728; stroke-linejoin: bevel"/>
     <use xlink:href="#mad45b8d22a" x="207.489261" y="239.086227" style="fill: #d62728; stroke: #d62728; stroke-linejoin: bevel"/>
     <use xlink:href="#mad45b8d22a" x="225.525625" y="221.995992" style="fill: #d62728; stroke: #d62728; stroke-linejoin: bevel"/>
     <use xlink:href="#mad45b8d22a" x="243.561989" y="194.838906" style="fill: #d62728; stroke: #d62728; stroke-linejoin: bevel"/>
     <use xlink:href="#mad45b8d22a" x="261.598352" y="172.364076" style="fill: #d62728; stroke: #d62728; stroke-linejoin: bevel"/>
     <use xlink:href="#mad45b8d22a" x="279.634716" y="150.123359" style="fill: #d62728; stroke: #d62728; stroke-linejoin: bevel"/>
     <use xlink:href="#mad45b8d22a" x="297.67108" y="144.738764" style="fill: #d62728; stroke: #d62728; stroke-linejoin: bevel"/>
     <use xlink:href="#mad45b8d22a" x="315.707443" y="104.705473" style="fill: #d62728; stroke: #d62728; stroke-linejoin: bevel"/>
     <use xlink:href="#mad45b8d22a" x="333.743807" y="82.698869" style="fill: #d62728; stroke: #d62728; stroke-linejoin: bevel"/>
     <use xlink:href="#mad45b8d22a" x="351.78017" y="58.819362" style="fill: #d62728; stroke: #d62728; stroke-linejoin: bevel"/>
    </g>
   </g>
   <g id="line2d_19">
    <path d="M 63.198352 255.708236 
L 81.234716 255.708236 
L 99.27108 255.005898 
L 117.307443 254.771785 
L 135.343807 255.942349 
L 153.38017 256.176462 
L 171.416534 255.708236 
L 189.452898 254.537672 
L 207.489261 249.387191 
L 225.525625 248.684852 
L 243.561989 217.781961 
L 261.598352 204.671644 
L 279.634716 176.578106 
L 297.67108 151.762148 
L 315.707443 136.07659 
L 333.743807 100.25733 
L 351.78017 86.678787 
L 369.816534 61.394603 
L 387.852898 29.789374 
" clip-path="url(#p455061f842)" style="fill: none; stroke: #9467bd; stroke-width: 1.5; stroke-linecap: square"/>
    <defs>
     <path id="m430f6e1f3f" d="M 0 -3 
L -0.673542 -0.927051 
L -2.85317 -0.927051 
L -1.089814 0.354102 
L -1.763356 2.427051 
L -0 1.145898 
L 1.763356 2.427051 
L 1.089814 0.354102 
L 2.85317 -0.927051 
L 0.673542 -0.927051 
z
" style="stroke: #9467bd; stroke-linejoin: bevel"/>
    </defs>
    <g clip-path="url(#p455061f842)">
     <use xlink:href="#m430f6e1f3f" x="63.198352" y="255.708236" style="fill: #9467bd; stroke: #9467bd; stroke-linejoin: bevel"/>
     <use xlink:href="#m430f6e1f3f" x="81.234716" y="255.708236" style="fill: #9467bd; stroke: #9467bd; stroke-linejoin: bevel"/>
     <use xlink:href="#m430f6e1f3f" x="99.27108" y="255.005898" style="fill: #9467bd; stroke: #9467bd; stroke-linejoin: bevel"/>
     <use xlink:href="#m430f6e1f3f" x="117.307443" y="254.771785" style="fill: #9467bd; stroke: #9467bd; stroke-linejoin: bevel"/>
     <use xlink:href="#m430f6e1f3f" x="135.343807" y="255.942349" style="fill: #9467bd; stroke: #9467bd; stroke-linejoin: bevel"/>
     <use xlink:href="#m430f6e1f3f" x="153.38017" y="256.176462" style="fill: #9467bd; stroke: #9467bd; stroke-linejoin: bevel"/>
     <use xlink:href="#m430f6e1f3f" x="171.416534" y="255.708236" style="fill: #9467bd; stroke: #9467bd; stroke-linejoin: bevel"/>
     <use xlink:href="#m430f6e1f3f" x="189.452898" y="254.537672" style="fill: #9467bd; stroke: #9467bd; stroke-linejoin: bevel"/>
     <use xlink:href="#m430f6e1f3f" x="207.489261" y="249.387191" style="fill: #9467bd; stroke: #9467bd; stroke-linejoin: bevel"/>
     <use xlink:href="#m430f6e1f3f" x="225.525625" y="248.684852" style="fill: #9467bd; stroke: #9467bd; stroke-linejoin: bevel"/>
     <use xlink:href="#m430f6e1f3f" x="243.561989" y="217.781961" style="fill: #9467bd; stroke: #9467bd; stroke-linejoin: bevel"/>
     <use xlink:href="#m430f6e1f3f" x="261.598352" y="204.671644" style="fill: #9467bd; stroke: #9467bd; stroke-linejoin: bevel"/>
     <use xlink:href="#m430f6e1f3f" x="279.634716" y="176.578106" style="fill: #9467bd; stroke: #9467bd; stroke-linejoin: bevel"/>
     <use xlink:href="#m430f6e1f3f" x="297.67108" y="151.762148" style="fill: #9467bd; stroke: #9467bd; stroke-linejoin: bevel"/>
     <use xlink:href="#m430f6e1f3f" x="315.707443" y="136.07659" style="fill: #9467bd; stroke: #9467bd; stroke-linejoin: bevel"/>
     <use xlink:href="#m430f6e1f3f" x="333.743807" y="100.25733" style="fill: #9467bd; stroke: #9467bd; stroke-linejoin: bevel"/>
     <use xlink:href="#m430f6e1f3f" x="351.78017" y="86.678787" style="fill: #9467bd; stroke: #9467bd; stroke-linejoin: bevel"/>
     <use xlink:href="#m430f6e1f3f" x="369.816534" y="61.394603" style="fill: #9467bd; stroke: #9467bd; stroke-linejoin: bevel"/>
     <use xlink:href="#m430f6e1f3f" x="387.852898" y="29.789374" style="fill: #9467bd; stroke: #9467bd; stroke-linejoin: bevel"/>
    </g>
   </g>
   <g id="patch_3">
    <path d="M 46.965625 273.312 
L 46.965625 7.2 
" style="fill: none; stroke: #000000; stroke-width: 0.8; stroke-linejoin: miter; stroke-linecap: square"/>
   </g>
   <g id="patch_4">
    <path d="M 404.085625 273.312 
L 404.085625 7.2 
" style="fill: none; stroke: #000000; stroke-width: 0.8; stroke-linejoin: miter; stroke-linecap: square"/>
   </g>
   <g id="patch_5">
    <path d="M 46.965625 273.312 
L 404.085625 273.312 
" style="fill: none; stroke: #000000; stroke-width: 0.8; stroke-linejoin: miter; stroke-linecap: square"/>
   </g>
   <g id="patch_6">
    <path d="M 46.965625 7.2 
L 404.085625 7.2 
" style="fill: none; stroke: #000000; stroke-width: 0.8; stroke-linejoin: miter; stroke-linecap: square"/>
   </g>
   <g id="legend_1">
    <g id="patch_7">
     <path d="M 53.965625 88.590625 
L 126.1375 88.590625 
Q 128.1375 88.590625 128.1375 86.590625 
L 128.1375 14.2 
Q 128.1375 12.2 126.1375 12.2 
L 53.965625 12.2 
Q 51.965625 12.2 51.965625 14.2 
L 51.965625 86.590625 
Q 51.965625 88.590625 53.965625 88.590625 
z
" style="fill: #ffffff; opacity: 0.8; stroke: #cccccc; stroke-linejoin: miter"/>
    </g>
    <g id="LineCollection_6">
     <path d="M 65.965625 25.298437 
L 65.965625 15.298437 
" style="fill: none; stroke: #1f77b4; stroke-width: 1.5"/>
    </g>
    <g id="line2d_20">
     <path d="M 55.965625 20.298437 
L 75.965625 20.298437 
" style="fill: none; stroke: #1f77b4; stroke-width: 1.5; stroke-linecap: square"/>
    </g>
    <g id="line2d_21">
     <g>
      <use xlink:href="#mf4b4edfbd8" x="65.965625" y="20.298437" style="fill: #1f77b4; stroke: #1f77b4; stroke-linejoin: bevel"/>
     </g>
    </g>
    <g id="text_17">
     <!-- q = 103 -->
     <g transform="translate(83.965625 23.798437) scale(0.1 -0.1)">
      <defs>
       <path id="DejaVuSans-71" d="M 947 1747 
Q 947 1113 1208 752 
Q 1469 391 1925 391 
Q 2381 391 2643 752 
Q 2906 1113 2906 1747 
Q 2906 2381 2643 2742 
Q 2381 3103 1925 3103 
Q 1469 3103 1208 2742 
Q 947 2381 947 1747 
z
M 2906 525 
Q 2725 213 2448 61 
Q 2172 -91 1784 -91 
Q 1150 -91 751 415 
Q 353 922 353 1747 
Q 353 2572 751 3078 
Q 1150 3584 1784 3584 
Q 2172 3584 2448 3432 
Q 2725 3281 2906 2969 
L 2906 3500 
L 3481 3500 
L 3481 -1331 
L 2906 -1331 
L 2906 525 
z
" transform="scale(0.015625)"/>
       <path id="DejaVuSans-3d" d="M 678 2906 
L 4684 2906 
L 4684 2381 
L 678 2381 
L 678 2906 
z
M 678 1631 
L 4684 1631 
L 4684 1100 
L 678 1100 
L 678 1631 
z
" transform="scale(0.015625)"/>
       <path id="DejaVuSans-33" d="M 2597 2516 
Q 3050 2419 3304 2112 
Q 3559 1806 3559 1356 
Q 3559 666 3084 287 
Q 2609 -91 1734 -91 
Q 1441 -91 1130 -33 
Q 819 25 488 141 
L 488 750 
Q 750 597 1062 519 
Q 1375 441 1716 441 
Q 2309 441 2620 675 
Q 2931 909 2931 1356 
Q 2931 1769 2642 2001 
Q 2353 2234 1838 2234 
L 1294 2234 
L 1294 2753 
L 1863 2753 
Q 2328 2753 2575 2939 
Q 2822 3125 2822 3475 
Q 2822 3834 2567 4026 
Q 2313 4219 1838 4219 
Q 1578 4219 1281 4162 
Q 984 4106 628 3988 
L 628 4550 
Q 988 4650 1302 4700 
Q 1616 4750 1894 4750 
Q 2613 4750 3031 4423 
Q 3450 4097 3450 3541 
Q 3450 3153 3228 2886 
Q 3006 2619 2597 2516 
z
" transform="scale(0.015625)"/>
      </defs>
      <use xlink:href="#DejaVuSans-71"/>
      <use xlink:href="#DejaVuSans-20" x="63.476562"/>
      <use xlink:href="#DejaVuSans-3d" x="95.263672"/>
      <use xlink:href="#DejaVuSans-20" x="179.052734"/>
      <use xlink:href="#DejaVuSans-31" x="210.839844"/>
      <use xlink:href="#DejaVuSans-30" x="274.462891"/>
      <use xlink:href="#DejaVuSans-33" x="338.085938"/>
     </g>
    </g>
    <g id="LineCollection_7">
     <path d="M 65.965625 39.976562 
L 65.965625 29.976562 
" style="fill: none; stroke: #ff7f0e; stroke-width: 1.5"/>
    </g>
    <g id="line2d_22">
     <path d="M 55.965625 34.976562 
L 75.965625 34.976562 
" style="fill: none; stroke: #ff7f0e; stroke-width: 1.5; stroke-linecap: square"/>
    </g>
    <g id="line2d_23">
     <g>
      <use xlink:href="#mb677130558" x="65.965625" y="34.976562" style="fill: #ff7f0e; stroke: #ff7f0e; stroke-linejoin: bevel"/>
     </g>
    </g>
    <g id="text_18">
     <!-- q = 127 -->
     <g transform="translate(83.965625 38.476562) scale(0.1 -0.1)">
      <use xlink:href="#DejaVuSans-71"/>
      <use xlink:href="#DejaVuSans-20" x="63.476562"/>
      <use xlink:href="#DejaVuSans-3d" x="95.263672"/>
      <use xlink:href="#DejaVuSans-20" x="179.052734"/>
      <use xlink:href="#DejaVuSans-31" x="210.839844"/>
      <use xlink:href="#DejaVuSans-32" x="274.462891"/>
      <use xlink:href="#DejaVuSans-37" x="338.085938"/>
     </g>
    </g>
    <g id="LineCollection_8">
     <path d="M 65.965625 54.654687 
L 65.965625 44.654687 
" style="fill: none; stroke: #2ca02c; stroke-width: 1.5"/>
    </g>
    <g id="line2d_24">
     <path d="M 55.965625 49.654687 
L 75.965625 49.654687 
" style="fill: none; stroke: #2ca02c; stroke-width: 1.5; stroke-linecap: square"/>
    </g>
    <g id="line2d_25">
     <g>
      <use xlink:href="#mc760c2670a" x="65.965625" y="49.654687" style="fill: #2ca02c; stroke: #2ca02c; stroke-linejoin: bevel"/>
     </g>
    </g>
    <g id="text_19">
     <!-- q = 151 -->
     <g transform="translate(83.965625 53.154687) scale(0.1 -0.1)">
      <use xlink:href="#DejaVuSans-71"/>
      <use xlink:href="#DejaVuSans-20" x="63.476562"/>
      <use xlink:href="#DejaVuSans-3d" x="95.263672"/>
      <use xlink:href="#DejaVuSans-20" x="179.052734"/>
      <use xlink:href="#DejaVuSans-31" x="210.839844"/>
      <use xlink:href="#DejaVuSans-35" x="274.462891"/>
      <use xlink:href="#DejaVuSans-31" x="338.085938"/>
     </g>
    </g>
    <g id="LineCollection_9">
     <path d="M 65.965625 69.332812 
L 65.965625 59.332812 
" style="fill: none; stroke: #d62728; stroke-width: 1.5"/>
    </g>
    <g id="line2d_26">
     <path d="M 55.965625 64.332812 
L 75.965625 64.332812 
" style="fill: none; stroke: #d62728; stroke-width: 1.5; stroke-linecap: square"/>
    </g>
    <g id="line2d_27">
     <g>
      <use xlink:href="#mad45b8d22a" x="65.965625" y="64.332812" style="fill: #d62728; stroke: #d62728; stroke-linejoin: bevel"/>
     </g>
    </g>
    <g id="text_20">
     <!-- q = 167 -->
     <g transform="translate(83.965625 67.832812) scale(0.1 -0.1)">
      <use xlink:href="#DejaVuSans-71"/>
      <use xlink:href="#DejaVuSans-20" x="63.476562"/>
      <use xlink:href="#DejaVuSans-3d" x="95.263672"/>
      <use xlink:href="#DejaVuSans-20" x="179.052734"/>
      <use xlink:href="#DejaVuSans-31" x="210.839844"/>
      <use xlink:href="#DejaVuSans-36" x="274.462891"/>
      <use xlink:href="#DejaVuSans-37" x="338.085938"/>
     </g>
    </g>
    <g id="LineCollection_10">
     <path d="M 65.965625 84.010937 
L 65.965625 74.010937 
" style="fill: none; stroke: #9467bd; stroke-width: 1.5"/>
    </g>
    <g id="line2d_28">
     <path d="M 55.965625 79.010937 
L 75.965625 79.010937 
" style="fill: none; stroke: #9467bd; stroke-width: 1.5; stroke-linecap: square"/>
    </g>
    <g id="line2d_29">
     <g>
      <use xlink:href="#m430f6e1f3f" x="65.965625" y="79.010937" style="fill: #9467bd; stroke: #9467bd; stroke-linejoin: bevel"/>
     </g>
    </g>
    <g id="text_21">
     <!-- q = 191 -->
     <g transform="translate(83.965625 82.510937) scale(0.1 -0.1)">
      <defs>
       <path id="DejaVuSans-39" d="M 703 97 
L 703 672 
Q 941 559 1184 500 
Q 1428 441 1663 441 
Q 2288 441 2617 861 
Q 2947 1281 2994 2138 
Q 2813 1869 2534 1725 
Q 2256 1581 1919 1581 
Q 1219 1581 811 2004 
Q 403 2428 403 3163 
Q 403 3881 828 4315 
Q 1253 4750 1959 4750 
Q 2769 4750 3195 4129 
Q 3622 3509 3622 2328 
Q 3622 1225 3098 567 
Q 2575 -91 1691 -91 
Q 1453 -91 1209 -44 
Q 966 3 703 97 
z
M 1959 2075 
Q 2384 2075 2632 2365 
Q 2881 2656 2881 3163 
Q 2881 3666 2632 3958 
Q 2384 4250 1959 4250 
Q 1534 4250 1286 3958 
Q 1038 3666 1038 3163 
Q 1038 2656 1286 2365 
Q 1534 2075 1959 2075 
z
" transform="scale(0.015625)"/>
      </defs>
      <use xlink:href="#DejaVuSans-71"/>
      <use xlink:href="#DejaVuSans-20" x="63.476562"/>
      <use xlink:href="#DejaVuSans-3d" x="95.263672"/>
      <use xlink:href="#DejaVuSans-20" x="179.052734"/>
      <use xlink:href="#DejaVuSans-31" x="210.839844"/>
      <use xlink:href="#DejaVuSans-39" x="274.462891"/>
      <use xlink:href="#DejaVuSans-31" x="338.085938"/>
     </g>
    </g>
   </g>
  </g>
 </g>
 <defs>
  <clipPath id="p455061f842">
   <rect x="46.965625" y="7.2" width="357.12" height="266.112"/>
  </clipPath>
 </defs>
</svg>
