<?xml version="1.0" encoding="utf-8" standalone="no"?>
<!DOCTYPE svg PUBLIC "-//W3C//DTD SVG 1.1//EN"
  "http://www.w3.org/Graphics/SVG/1.1/DTD/svg11.dtd">
<svg xmlns:xlink="http://www.w3.org/1999/xlink" width="391.564375pt" height="274.289375pt" viewBox="0 0 391.564375 274.289375" xmlns="http://www.w3.org/2000/svg" version="1.1">
 <metadata>
  <rdf:RDF xmlns:dc="http://purl.org/dc/elements/1.1/" xmlns:cc="http://creativecommons.org/ns#" xmlns:rdf="http://www.w3.org/1999/02/22-rdf-syntax-ns#">
   <cc:Work>
    <dc:type rdf:resource="http://purl.org/dc/dcmitype/StillImage"/>
    <dc:date>2023-07-30T15:41:38.009193</dc:date>
    <dc:format>image/svg+xml</dc:format>
    <dc:creator>
     <cc:Agent>
      <dc:title>Matplotlib v3.5.2, https://matplotlib.org/</dc:title>
     </cc:Agent>
    </dc:creator>
   </cc:Work>
  </rdf:RDF>
 </metadata>
 <defs>
  <style type="text/css">*{stroke-linejoin: round; stroke-linecap: butt}</style>
 </defs>
 <g id="figure_1">
  <g id="patch_1">
   <path d="M 0 274.289375 
L 391.564375 274.289375 
L 391.564375 0 
L 0 0 
z
" style="fill: #ffffff"/>
  </g>
  <g id="axes_1">
   <g id="patch_2">
    <path d="M 49.564375 228.96 
L 384.364375 228.96 
L 384.364375 7.2 
L 49.564375 7.2 
z
" style="fill: #ffffff"/>
   </g>
   <g id="PathCollection_1">
    <defs>
     <path id="m3ca9856a46" d="M 0 -3.535534 
L -0.793777 -1.09254 
L -3.362493 -1.09254 
L -1.284358 0.417313 
L -2.078135 2.860307 
L -0 1.350454 
L 2.078135 2.860307 
L 1.284358 0.417313 
L 3.362493 -1.09254 
L 0.793777 -1.09254 
z
" style="stroke: #f08080"/>
    </defs>
    <g clip-path="url(#pb4d385883e)">
     <use xlink:href="#m3ca9856a46" x="64.782557" y="218.88" style="fill: #f08080; stroke: #f08080"/>
     <use xlink:href="#m3ca9856a46" x="88.195144" y="206.300254" style="fill: #f08080; stroke: #f08080"/>
     <use xlink:href="#m3ca9856a46" x="111.607732" y="193.720509" style="fill: #f08080; stroke: #f08080"/>
     <use xlink:href="#m3ca9856a46" x="135.020319" y="181.140763" style="fill: #f08080; stroke: #f08080"/>
     <use xlink:href="#m3ca9856a46" x="158.432906" y="168.561017" style="fill: #f08080; stroke: #f08080"/>
     <use xlink:href="#m3ca9856a46" x="181.845494" y="155.981272" style="fill: #f08080; stroke: #f08080"/>
     <use xlink:href="#m3ca9856a46" x="205.258081" y="143.401526" style="fill: #f08080; stroke: #f08080"/>
     <use xlink:href="#m3ca9856a46" x="228.670669" y="130.82178" style="fill: #f08080; stroke: #f08080"/>
     <use xlink:href="#m3ca9856a46" x="252.083256" y="118.242035" style="fill: #f08080; stroke: #f08080"/>
     <use xlink:href="#m3ca9856a46" x="275.495844" y="105.662289" style="fill: #f08080; stroke: #f08080"/>
     <use xlink:href="#m3ca9856a46" x="298.908431" y="93.082543" style="fill: #f08080; stroke: #f08080"/>
     <use xlink:href="#m3ca9856a46" x="322.321018" y="80.502798" style="fill: #f08080; stroke: #f08080"/>
     <use xlink:href="#m3ca9856a46" x="345.733606" y="67.923052" style="fill: #f08080; stroke: #f08080"/>
     <use xlink:href="#m3ca9856a46" x="369.146193" y="55.343306" style="fill: #f08080; stroke: #f08080"/>
    </g>
   </g>
   <g id="PolyCollection_1">
    <path d="M 64.782557 131.406458 
L 64.782557 163.950821 
L 88.195144 154.925724 
L 111.607732 142.605833 
L 135.020319 131.734461 
L 158.432906 118.151315 
L 181.845494 107.76793 
L 205.258081 102.044593 
L 228.670669 94.630442 
L 252.083256 85.623481 
L 275.495844 77.4417 
L 298.908431 72.659442 
L 322.321018 66.763493 
L 345.733606 58.897784 
L 369.146193 52.044409 
L 369.146193 17.28 
L 369.146193 17.28 
L 345.733606 26.377742 
L 322.321018 38.287394 
L 298.908431 40.241206 
L 275.495844 42.7552 
L 252.083256 52.738572 
L 228.670669 64.865584 
L 205.258081 68.169377 
L 181.845494 77.088863 
L 158.432906 87.88977 
L 135.020319 99.617072 
L 111.607732 106.407663 
L 88.195144 121.91417 
L 64.782557 131.406458 
z
" clip-path="url(#pb4d385883e)" style="fill: #1f77b4; fill-opacity: 0.2"/>
   </g>
   <g id="PolyCollection_2">
    <path d="M 64.782557 140.885577 
L 64.782557 171.076966 
L 88.195144 154.642754 
L 111.607732 144.220669 
L 135.020319 134.763058 
L 158.432906 120.554092 
L 181.845494 112.101556 
L 205.258081 105.942188 
L 228.670669 91.518507 
L 252.083256 86.463441 
L 275.495844 80.782697 
L 298.908431 73.354042 
L 322.321018 71.514929 
L 345.733606 60.782974 
L 369.146193 57.363151 
L 369.146193 23.584943 
L 369.146193 23.584943 
L 345.733606 33.600289 
L 322.321018 36.40414 
L 298.908431 41.156813 
L 275.495844 52.799053 
L 252.083256 57.987209 
L 228.670669 64.052638 
L 205.258081 77.958544 
L 181.845494 79.699257 
L 158.432906 93.940582 
L 135.020319 102.626753 
L 111.607732 110.931743 
L 88.195144 126.524572 
L 64.782557 140.885577 
z
" clip-path="url(#pb4d385883e)" style="fill: #ff7f0e; fill-opacity: 0.2"/>
   </g>
   <g id="PolyCollection_3">
    <path d="M 64.782557 142.230581 
L 64.782557 177.782999 
L 88.195144 159.17922 
L 111.607732 144.937849 
L 135.020319 139.716277 
L 158.432906 124.89388 
L 181.845494 113.922922 
L 205.258081 107.790992 
L 228.670669 102.586605 
L 252.083256 89.740546 
L 275.495844 82.273471 
L 298.908431 77.387011 
L 322.321018 66.575879 
L 345.733606 63.537957 
L 369.146193 55.672278 
L 369.146193 25.326135 
L 369.146193 25.326135 
L 345.733606 32.858064 
L 322.321018 37.569266 
L 298.908431 48.19402 
L 275.495844 53.773908 
L 252.083256 61.050296 
L 228.670669 68.633744 
L 205.258081 79.984302 
L 181.845494 87.589454 
L 158.432906 95.639071 
L 135.020319 110.202961 
L 111.607732 115.145824 
L 88.195144 128.378617 
L 64.782557 142.230581 
z
" clip-path="url(#pb4d385883e)" style="fill: #2ca02c; fill-opacity: 0.2"/>
   </g>
   <g id="matplotlib.axis_1">
    <g id="xtick_1">
     <g id="line2d_1">
      <defs>
       <path id="mee7d9f1fea" d="M 0 0 
L 0 3.5 
" style="stroke: #000000; stroke-width: 0.8"/>
      </defs>
      <g>
       <use xlink:href="#mee7d9f1fea" x="64.782557" y="228.96" style="stroke: #000000; stroke-width: 0.8"/>
      </g>
     </g>
     <g id="text_1">
      <!-- 100 -->
      <g transform="translate(51.421307 246.597813)scale(0.14 -0.14)">
       <defs>
        <path id="DejaVuSans-31" d="M 794 531 
L 1825 531 
L 1825 4091 
L 703 3866 
L 703 4441 
L 1819 4666 
L 2450 4666 
L 2450 531 
L 3481 531 
L 3481 0 
L 794 0 
L 794 531 
z
" transform="scale(0.015625)"/>
        <path id="DejaVuSans-30" d="M 2034 4250 
Q 1547 4250 1301 3770 
Q 1056 3291 1056 2328 
Q 1056 1369 1301 889 
Q 1547 409 2034 409 
Q 2525 409 2770 889 
Q 3016 1369 3016 2328 
Q 3016 3291 2770 3770 
Q 2525 4250 2034 4250 
z
M 2034 4750 
Q 2819 4750 3233 4129 
Q 3647 3509 3647 2328 
Q 3647 1150 3233 529 
Q 2819 -91 2034 -91 
Q 1250 -91 836 529 
Q 422 1150 422 2328 
Q 422 3509 836 4129 
Q 1250 4750 2034 4750 
z
" transform="scale(0.015625)"/>
       </defs>
       <use xlink:href="#DejaVuSans-31"/>
       <use xlink:href="#DejaVuSans-30" x="63.623047"/>
       <use xlink:href="#DejaVuSans-30" x="127.246094"/>
      </g>
     </g>
    </g>
    <g id="xtick_2">
     <g id="line2d_2">
      <g>
       <use xlink:href="#mee7d9f1fea" x="158.432906" y="228.96" style="stroke: #000000; stroke-width: 0.8"/>
      </g>
     </g>
     <g id="text_2">
      <!-- 120 -->
      <g transform="translate(145.071656 246.597813)scale(0.14 -0.14)">
       <defs>
        <path id="DejaVuSans-32" d="M 1228 531 
L 3431 531 
L 3431 0 
L 469 0 
L 469 531 
Q 828 903 1448 1529 
Q 2069 2156 2228 2338 
Q 2531 2678 2651 2914 
Q 2772 3150 2772 3378 
Q 2772 3750 2511 3984 
Q 2250 4219 1831 4219 
Q 1534 4219 1204 4116 
Q 875 4013 500 3803 
L 500 4441 
Q 881 4594 1212 4672 
Q 1544 4750 1819 4750 
Q 2544 4750 2975 4387 
Q 3406 4025 3406 3419 
Q 3406 3131 3298 2873 
Q 3191 2616 2906 2266 
Q 2828 2175 2409 1742 
Q 1991 1309 1228 531 
z
" transform="scale(0.015625)"/>
       </defs>
       <use xlink:href="#DejaVuSans-31"/>
       <use xlink:href="#DejaVuSans-32" x="63.623047"/>
       <use xlink:href="#DejaVuSans-30" x="127.246094"/>
      </g>
     </g>
    </g>
    <g id="xtick_3">
     <g id="line2d_3">
      <g>
       <use xlink:href="#mee7d9f1fea" x="252.083256" y="228.96" style="stroke: #000000; stroke-width: 0.8"/>
      </g>
     </g>
     <g id="text_3">
      <!-- 140 -->
      <g transform="translate(238.722006 246.597813)scale(0.14 -0.14)">
       <defs>
        <path id="DejaVuSans-34" d="M 2419 4116 
L 825 1625 
L 2419 1625 
L 2419 4116 
z
M 2253 4666 
L 3047 4666 
L 3047 1625 
L 3713 1625 
L 3713 1100 
L 3047 1100 
L 3047 0 
L 2419 0 
L 2419 1100 
L 313 1100 
L 313 1709 
L 2253 4666 
z
" transform="scale(0.015625)"/>
       </defs>
       <use xlink:href="#DejaVuSans-31"/>
       <use xlink:href="#DejaVuSans-34" x="63.623047"/>
       <use xlink:href="#DejaVuSans-30" x="127.246094"/>
      </g>
     </g>
    </g>
    <g id="xtick_4">
     <g id="line2d_4">
      <g>
       <use xlink:href="#mee7d9f1fea" x="345.733606" y="228.96" style="stroke: #000000; stroke-width: 0.8"/>
      </g>
     </g>
     <g id="text_4">
      <!-- 160 -->
      <g transform="translate(332.372356 246.597813)scale(0.14 -0.14)">
       <defs>
        <path id="DejaVuSans-36" d="M 2113 2584 
Q 1688 2584 1439 2293 
Q 1191 2003 1191 1497 
Q 1191 994 1439 701 
Q 1688 409 2113 409 
Q 2538 409 2786 701 
Q 3034 994 3034 1497 
Q 3034 2003 2786 2293 
Q 2538 2584 2113 2584 
z
M 3366 4563 
L 3366 3988 
Q 3128 4100 2886 4159 
Q 2644 4219 2406 4219 
Q 1781 4219 1451 3797 
Q 1122 3375 1075 2522 
Q 1259 2794 1537 2939 
Q 1816 3084 2150 3084 
Q 2853 3084 3261 2657 
Q 3669 2231 3669 1497 
Q 3669 778 3244 343 
Q 2819 -91 2113 -91 
Q 1303 -91 875 529 
Q 447 1150 447 2328 
Q 447 3434 972 4092 
Q 1497 4750 2381 4750 
Q 2619 4750 2861 4703 
Q 3103 4656 3366 4563 
z
" transform="scale(0.015625)"/>
       </defs>
       <use xlink:href="#DejaVuSans-31"/>
       <use xlink:href="#DejaVuSans-36" x="63.623047"/>
       <use xlink:href="#DejaVuSans-30" x="127.246094"/>
      </g>
     </g>
    </g>
    <g id="text_5">
     <!-- Number of qubits $n$ -->
     <g transform="translate(149.274375 264.149375)scale(0.14 -0.14)">
      <defs>
       <path id="DejaVuSans-4e" d="M 628 4666 
L 1478 4666 
L 3547 763 
L 3547 4666 
L 4159 4666 
L 4159 0 
L 3309 0 
L 1241 3903 
L 1241 0 
L 628 0 
L 628 4666 
z
" transform="scale(0.015625)"/>
       <path id="DejaVuSans-75" d="M 544 1381 
L 544 3500 
L 1119 3500 
L 1119 1403 
Q 1119 906 1312 657 
Q 1506 409 1894 409 
Q 2359 409 2629 706 
Q 2900 1003 2900 1516 
L 2900 3500 
L 3475 3500 
L 3475 0 
L 2900 0 
L 2900 538 
Q 2691 219 2414 64 
Q 2138 -91 1772 -91 
Q 1169 -91 856 284 
Q 544 659 544 1381 
z
M 1991 3584 
L 1991 3584 
z
" transform="scale(0.015625)"/>
       <path id="DejaVuSans-6d" d="M 3328 2828 
Q 3544 3216 3844 3400 
Q 4144 3584 4550 3584 
Q 5097 3584 5394 3201 
Q 5691 2819 5691 2113 
L 5691 0 
L 5113 0 
L 5113 2094 
Q 5113 2597 4934 2840 
Q 4756 3084 4391 3084 
Q 3944 3084 3684 2787 
Q 3425 2491 3425 1978 
L 3425 0 
L 2847 0 
L 2847 2094 
Q 2847 2600 2669 2842 
Q 2491 3084 2119 3084 
Q 1678 3084 1418 2786 
Q 1159 2488 1159 1978 
L 1159 0 
L 581 0 
L 581 3500 
L 1159 3500 
L 1159 2956 
Q 1356 3278 1631 3431 
Q 1906 3584 2284 3584 
Q 2666 3584 2933 3390 
Q 3200 3197 3328 2828 
z
" transform="scale(0.015625)"/>
       <path id="DejaVuSans-62" d="M 3116 1747 
Q 3116 2381 2855 2742 
Q 2594 3103 2138 3103 
Q 1681 3103 1420 2742 
Q 1159 2381 1159 1747 
Q 1159 1113 1420 752 
Q 1681 391 2138 391 
Q 2594 391 2855 752 
Q 3116 1113 3116 1747 
z
M 1159 2969 
Q 1341 3281 1617 3432 
Q 1894 3584 2278 3584 
Q 2916 3584 3314 3078 
Q 3713 2572 3713 1747 
Q 3713 922 3314 415 
Q 2916 -91 2278 -91 
Q 1894 -91 1617 61 
Q 1341 213 1159 525 
L 1159 0 
L 581 0 
L 581 4863 
L 1159 4863 
L 1159 2969 
z
" transform="scale(0.015625)"/>
       <path id="DejaVuSans-65" d="M 3597 1894 
L 3597 1613 
L 953 1613 
Q 991 1019 1311 708 
Q 1631 397 2203 397 
Q 2534 397 2845 478 
Q 3156 559 3463 722 
L 3463 178 
Q 3153 47 2828 -22 
Q 2503 -91 2169 -91 
Q 1331 -91 842 396 
Q 353 884 353 1716 
Q 353 2575 817 3079 
Q 1281 3584 2069 3584 
Q 2775 3584 3186 3129 
Q 3597 2675 3597 1894 
z
M 3022 2063 
Q 3016 2534 2758 2815 
Q 2500 3097 2075 3097 
Q 1594 3097 1305 2825 
Q 1016 2553 972 2059 
L 3022 2063 
z
" transform="scale(0.015625)"/>
       <path id="DejaVuSans-72" d="M 2631 2963 
Q 2534 3019 2420 3045 
Q 2306 3072 2169 3072 
Q 1681 3072 1420 2755 
Q 1159 2438 1159 1844 
L 1159 0 
L 581 0 
L 581 3500 
L 1159 3500 
L 1159 2956 
Q 1341 3275 1631 3429 
Q 1922 3584 2338 3584 
Q 2397 3584 2469 3576 
Q 2541 3569 2628 3553 
L 2631 2963 
z
" transform="scale(0.015625)"/>
       <path id="DejaVuSans-20" transform="scale(0.015625)"/>
       <path id="DejaVuSans-6f" d="M 1959 3097 
Q 1497 3097 1228 2736 
Q 959 2375 959 1747 
Q 959 1119 1226 758 
Q 1494 397 1959 397 
Q 2419 397 2687 759 
Q 2956 1122 2956 1747 
Q 2956 2369 2687 2733 
Q 2419 3097 1959 3097 
z
M 1959 3584 
Q 2709 3584 3137 3096 
Q 3566 2609 3566 1747 
Q 3566 888 3137 398 
Q 2709 -91 1959 -91 
Q 1206 -91 779 398 
Q 353 888 353 1747 
Q 353 2609 779 3096 
Q 1206 3584 1959 3584 
z
" transform="scale(0.015625)"/>
       <path id="DejaVuSans-66" d="M 2375 4863 
L 2375 4384 
L 1825 4384 
Q 1516 4384 1395 4259 
Q 1275 4134 1275 3809 
L 1275 3500 
L 2222 3500 
L 2222 3053 
L 1275 3053 
L 1275 0 
L 697 0 
L 697 3053 
L 147 3053 
L 147 3500 
L 697 3500 
L 697 3744 
Q 697 4328 969 4595 
Q 1241 4863 1831 4863 
L 2375 4863 
z
" transform="scale(0.015625)"/>
       <path id="DejaVuSans-71" d="M 947 1747 
Q 947 1113 1208 752 
Q 1469 391 1925 391 
Q 2381 391 2643 752 
Q 2906 1113 2906 1747 
Q 2906 2381 2643 2742 
Q 2381 3103 1925 3103 
Q 1469 3103 1208 2742 
Q 947 2381 947 1747 
z
M 2906 525 
Q 2725 213 2448 61 
Q 2172 -91 1784 -91 
Q 1150 -91 751 415 
Q 353 922 353 1747 
Q 353 2572 751 3078 
Q 1150 3584 1784 3584 
Q 2172 3584 2448 3432 
Q 2725 3281 2906 2969 
L 2906 3500 
L 3481 3500 
L 3481 -1331 
L 2906 -1331 
L 2906 525 
z
" transform="scale(0.015625)"/>
       <path id="DejaVuSans-69" d="M 603 3500 
L 1178 3500 
L 1178 0 
L 603 0 
L 603 3500 
z
M 603 4863 
L 1178 4863 
L 1178 4134 
L 603 4134 
L 603 4863 
z
" transform="scale(0.015625)"/>
       <path id="DejaVuSans-74" d="M 1172 4494 
L 1172 3500 
L 2356 3500 
L 2356 3053 
L 1172 3053 
L 1172 1153 
Q 1172 725 1289 603 
Q 1406 481 1766 481 
L 2356 481 
L 2356 0 
L 1766 0 
Q 1100 0 847 248 
Q 594 497 594 1153 
L 594 3053 
L 172 3053 
L 172 3500 
L 594 3500 
L 594 4494 
L 1172 4494 
z
" transform="scale(0.015625)"/>
       <path id="DejaVuSans-73" d="M 2834 3397 
L 2834 2853 
Q 2591 2978 2328 3040 
Q 2066 3103 1784 3103 
Q 1356 3103 1142 2972 
Q 928 2841 928 2578 
Q 928 2378 1081 2264 
Q 1234 2150 1697 2047 
L 1894 2003 
Q 2506 1872 2764 1633 
Q 3022 1394 3022 966 
Q 3022 478 2636 193 
Q 2250 -91 1575 -91 
Q 1294 -91 989 -36 
Q 684 19 347 128 
L 347 722 
Q 666 556 975 473 
Q 1284 391 1588 391 
Q 1994 391 2212 530 
Q 2431 669 2431 922 
Q 2431 1156 2273 1281 
Q 2116 1406 1581 1522 
L 1381 1569 
Q 847 1681 609 1914 
Q 372 2147 372 2553 
Q 372 3047 722 3315 
Q 1072 3584 1716 3584 
Q 2034 3584 2315 3537 
Q 2597 3491 2834 3397 
z
" transform="scale(0.015625)"/>
       <path id="DejaVuSans-Oblique-6e" d="M 3566 2113 
L 3156 0 
L 2578 0 
L 2988 2091 
Q 3016 2238 3031 2350 
Q 3047 2463 3047 2528 
Q 3047 2791 2881 2937 
Q 2716 3084 2419 3084 
Q 1956 3084 1622 2776 
Q 1288 2469 1184 1941 
L 800 0 
L 225 0 
L 903 3500 
L 1478 3500 
L 1363 2950 
Q 1603 3253 1940 3418 
Q 2278 3584 2650 3584 
Q 3113 3584 3367 3334 
Q 3622 3084 3622 2631 
Q 3622 2519 3608 2391 
Q 3594 2263 3566 2113 
z
" transform="scale(0.015625)"/>
      </defs>
      <use xlink:href="#DejaVuSans-4e" transform="translate(0 0.015625)"/>
      <use xlink:href="#DejaVuSans-75" transform="translate(74.804688 0.015625)"/>
      <use xlink:href="#DejaVuSans-6d" transform="translate(138.183594 0.015625)"/>
      <use xlink:href="#DejaVuSans-62" transform="translate(235.595703 0.015625)"/>
      <use xlink:href="#DejaVuSans-65" transform="translate(299.072266 0.015625)"/>
      <use xlink:href="#DejaVuSans-72" transform="translate(360.595703 0.015625)"/>
      <use xlink:href="#DejaVuSans-20" transform="translate(401.708984 0.015625)"/>
      <use xlink:href="#DejaVuSans-6f" transform="translate(433.496094 0.015625)"/>
      <use xlink:href="#DejaVuSans-66" transform="translate(494.677734 0.015625)"/>
      <use xlink:href="#DejaVuSans-20" transform="translate(529.882812 0.015625)"/>
      <use xlink:href="#DejaVuSans-71" transform="translate(561.669922 0.015625)"/>
      <use xlink:href="#DejaVuSans-75" transform="translate(625.146484 0.015625)"/>
      <use xlink:href="#DejaVuSans-62" transform="translate(688.525391 0.015625)"/>
      <use xlink:href="#DejaVuSans-69" transform="translate(752.001953 0.015625)"/>
      <use xlink:href="#DejaVuSans-74" transform="translate(779.785156 0.015625)"/>
      <use xlink:href="#DejaVuSans-73" transform="translate(818.994141 0.015625)"/>
      <use xlink:href="#DejaVuSans-20" transform="translate(871.09375 0.015625)"/>
      <use xlink:href="#DejaVuSans-Oblique-6e" transform="translate(902.880859 0.015625)"/>
     </g>
    </g>
   </g>
   <g id="matplotlib.axis_2">
    <g id="ytick_1">
     <g id="line2d_5">
      <defs>
       <path id="m17a2a180c0" d="M 0 0 
L -3.5 0 
" style="stroke: #000000; stroke-width: 0.8"/>
      </defs>
      <g>
       <use xlink:href="#m17a2a180c0" x="49.564375" y="218.88" style="stroke: #000000; stroke-width: 0.8"/>
      </g>
     </g>
     <g id="text_6">
      <!-- 0 -->
      <g transform="translate(33.656875 224.198906)scale(0.14 -0.14)">
       <use xlink:href="#DejaVuSans-30"/>
      </g>
     </g>
    </g>
    <g id="ytick_2">
     <g id="line2d_6">
      <g>
       <use xlink:href="#m17a2a180c0" x="49.564375" y="168.561017" style="stroke: #000000; stroke-width: 0.8"/>
      </g>
     </g>
     <g id="text_7">
      <!-- 20 -->
      <g transform="translate(24.749375 173.879924)scale(0.14 -0.14)">
       <use xlink:href="#DejaVuSans-32"/>
       <use xlink:href="#DejaVuSans-30" x="63.623047"/>
      </g>
     </g>
    </g>
    <g id="ytick_3">
     <g id="line2d_7">
      <g>
       <use xlink:href="#m17a2a180c0" x="49.564375" y="118.242035" style="stroke: #000000; stroke-width: 0.8"/>
      </g>
     </g>
     <g id="text_8">
      <!-- 40 -->
      <g transform="translate(24.749375 123.560941)scale(0.14 -0.14)">
       <use xlink:href="#DejaVuSans-34"/>
       <use xlink:href="#DejaVuSans-30" x="63.623047"/>
      </g>
     </g>
    </g>
    <g id="ytick_4">
     <g id="line2d_8">
      <g>
       <use xlink:href="#m17a2a180c0" x="49.564375" y="67.923052" style="stroke: #000000; stroke-width: 0.8"/>
      </g>
     </g>
     <g id="text_9">
      <!-- 60 -->
      <g transform="translate(24.749375 73.241958)scale(0.14 -0.14)">
       <use xlink:href="#DejaVuSans-36"/>
       <use xlink:href="#DejaVuSans-30" x="63.623047"/>
      </g>
     </g>
    </g>
    <g id="ytick_5">
     <g id="line2d_9">
      <g>
       <use xlink:href="#m17a2a180c0" x="49.564375" y="17.604069" style="stroke: #000000; stroke-width: 0.8"/>
      </g>
     </g>
     <g id="text_10">
      <!-- 80 -->
      <g transform="translate(24.749375 22.922976)scale(0.14 -0.14)">
       <defs>
        <path id="DejaVuSans-38" d="M 2034 2216 
Q 1584 2216 1326 1975 
Q 1069 1734 1069 1313 
Q 1069 891 1326 650 
Q 1584 409 2034 409 
Q 2484 409 2743 651 
Q 3003 894 3003 1313 
Q 3003 1734 2745 1975 
Q 2488 2216 2034 2216 
z
M 1403 2484 
Q 997 2584 770 2862 
Q 544 3141 544 3541 
Q 544 4100 942 4425 
Q 1341 4750 2034 4750 
Q 2731 4750 3128 4425 
Q 3525 4100 3525 3541 
Q 3525 3141 3298 2862 
Q 3072 2584 2669 2484 
Q 3125 2378 3379 2068 
Q 3634 1759 3634 1313 
Q 3634 634 3220 271 
Q 2806 -91 2034 -91 
Q 1263 -91 848 271 
Q 434 634 434 1313 
Q 434 1759 690 2068 
Q 947 2378 1403 2484 
z
M 1172 3481 
Q 1172 3119 1398 2916 
Q 1625 2713 2034 2713 
Q 2441 2713 2670 2916 
Q 2900 3119 2900 3481 
Q 2900 3844 2670 4047 
Q 2441 4250 2034 4250 
Q 1625 4250 1398 4047 
Q 1172 3844 1172 3481 
z
" transform="scale(0.015625)"/>
       </defs>
       <use xlink:href="#DejaVuSans-38"/>
       <use xlink:href="#DejaVuSans-30" x="63.623047"/>
      </g>
     </g>
    </g>
    <g id="text_11">
     <!-- Dim. of $\mathrm{ker}(\mathbf{G}_\mathbf{d})$ -->
     <g transform="translate(17.837812 171.91)rotate(-90)scale(0.14 -0.14)">
      <defs>
       <path id="DejaVuSans-44" d="M 1259 4147 
L 1259 519 
L 2022 519 
Q 2988 519 3436 956 
Q 3884 1394 3884 2338 
Q 3884 3275 3436 3711 
Q 2988 4147 2022 4147 
L 1259 4147 
z
M 628 4666 
L 1925 4666 
Q 3281 4666 3915 4102 
Q 4550 3538 4550 2338 
Q 4550 1131 3912 565 
Q 3275 0 1925 0 
L 628 0 
L 628 4666 
z
" transform="scale(0.015625)"/>
       <path id="DejaVuSans-2e" d="M 684 794 
L 1344 794 
L 1344 0 
L 684 0 
L 684 794 
z
" transform="scale(0.015625)"/>
       <path id="DejaVuSans-6b" d="M 581 4863 
L 1159 4863 
L 1159 1991 
L 2875 3500 
L 3609 3500 
L 1753 1863 
L 3688 0 
L 2938 0 
L 1159 1709 
L 1159 0 
L 581 0 
L 581 4863 
z
" transform="scale(0.015625)"/>
       <path id="DejaVuSans-28" d="M 1984 4856 
Q 1566 4138 1362 3434 
Q 1159 2731 1159 2009 
Q 1159 1288 1364 580 
Q 1569 -128 1984 -844 
L 1484 -844 
Q 1016 -109 783 600 
Q 550 1309 550 2009 
Q 550 2706 781 3412 
Q 1013 4119 1484 4856 
L 1984 4856 
z
" transform="scale(0.015625)"/>
       <path id="DejaVuSans-Bold-47" d="M 4781 347 
Q 4331 128 3847 18 
Q 3363 -91 2847 -91 
Q 1681 -91 1000 561 
Q 319 1213 319 2328 
Q 319 3456 1012 4103 
Q 1706 4750 2913 4750 
Q 3378 4750 3804 4662 
Q 4231 4575 4609 4403 
L 4609 3438 
Q 4219 3659 3833 3768 
Q 3447 3878 3059 3878 
Q 2341 3878 1952 3476 
Q 1563 3075 1563 2328 
Q 1563 1588 1938 1184 
Q 2313 781 3003 781 
Q 3191 781 3352 804 
Q 3513 828 3641 878 
L 3641 1784 
L 2906 1784 
L 2906 2591 
L 4781 2591 
L 4781 347 
z
" transform="scale(0.015625)"/>
       <path id="DejaVuSans-Bold-64" d="M 2919 2988 
L 2919 4863 
L 4044 4863 
L 4044 0 
L 2919 0 
L 2919 506 
Q 2688 197 2409 53 
Q 2131 -91 1766 -91 
Q 1119 -91 703 423 
Q 288 938 288 1747 
Q 288 2556 703 3070 
Q 1119 3584 1766 3584 
Q 2128 3584 2408 3439 
Q 2688 3294 2919 2988 
z
M 2181 722 
Q 2541 722 2730 984 
Q 2919 1247 2919 1747 
Q 2919 2247 2730 2509 
Q 2541 2772 2181 2772 
Q 1825 2772 1636 2509 
Q 1447 2247 1447 1747 
Q 1447 1247 1636 984 
Q 1825 722 2181 722 
z
" transform="scale(0.015625)"/>
       <path id="DejaVuSans-29" d="M 513 4856 
L 1013 4856 
Q 1481 4119 1714 3412 
Q 1947 2706 1947 2009 
Q 1947 1309 1714 600 
Q 1481 -109 1013 -844 
L 513 -844 
Q 928 -128 1133 580 
Q 1338 1288 1338 2009 
Q 1338 2731 1133 3434 
Q 928 4138 513 4856 
z
" transform="scale(0.015625)"/>
      </defs>
      <use xlink:href="#DejaVuSans-44" transform="translate(0 0.015625)"/>
      <use xlink:href="#DejaVuSans-69" transform="translate(77.001953 0.015625)"/>
      <use xlink:href="#DejaVuSans-6d" transform="translate(104.785156 0.015625)"/>
      <use xlink:href="#DejaVuSans-2e" transform="translate(202.197266 0.015625)"/>
      <use xlink:href="#DejaVuSans-20" transform="translate(233.984375 0.015625)"/>
      <use xlink:href="#DejaVuSans-6f" transform="translate(265.771484 0.015625)"/>
      <use xlink:href="#DejaVuSans-66" transform="translate(326.953125 0.015625)"/>
      <use xlink:href="#DejaVuSans-20" transform="translate(362.158203 0.015625)"/>
      <use xlink:href="#DejaVuSans-6b" transform="translate(393.945312 0.015625)"/>
      <use xlink:href="#DejaVuSans-65" transform="translate(451.855469 0.015625)"/>
      <use xlink:href="#DejaVuSans-72" transform="translate(513.378906 0.015625)"/>
      <use xlink:href="#DejaVuSans-28" transform="translate(554.492188 0.015625)"/>
      <use xlink:href="#DejaVuSans-Bold-47" transform="translate(593.505859 0.015625)"/>
      <use xlink:href="#DejaVuSans-Bold-64" transform="translate(676.542969 -16.390625)scale(0.7)"/>
      <use xlink:href="#DejaVuSans-29" transform="translate(729.384766 0.015625)"/>
     </g>
    </g>
   </g>
   <g id="line2d_10">
    <path d="M 64.782557 147.67864 
L 88.195144 138.419947 
L 111.607732 124.506748 
L 135.020319 115.675767 
L 158.432906 103.020542 
L 181.845494 92.428397 
L 205.258081 85.106985 
L 228.670669 79.748013 
L 252.083256 69.181027 
L 275.495844 60.09845 
L 298.908431 56.450324 
L 322.321018 52.525443 
L 345.733606 42.637763 
L 369.146193 34.662204 
" clip-path="url(#pb4d385883e)" style="fill: none; stroke: #1f77b4; stroke-width: 1.5; stroke-linecap: square"/>
   </g>
   <g id="line2d_11">
    <path d="M 64.782557 155.981272 
L 88.195144 140.583663 
L 111.607732 127.576206 
L 135.020319 118.694905 
L 158.432906 107.247337 
L 181.845494 95.900406 
L 205.258081 91.950366 
L 228.670669 77.785573 
L 252.083256 72.225325 
L 275.495844 66.790875 
L 298.908431 57.255428 
L 322.321018 53.959534 
L 345.733606 47.191631 
L 369.146193 40.474047 
" clip-path="url(#pb4d385883e)" style="fill: none; stroke: #ff7f0e; stroke-width: 1.5; stroke-linecap: square"/>
   </g>
   <g id="line2d_12">
    <path d="M 64.782557 160.00679 
L 88.195144 143.778918 
L 111.607732 130.041836 
L 135.020319 124.959619 
L 158.432906 110.266476 
L 181.845494 100.756188 
L 205.258081 93.887647 
L 228.670669 85.610174 
L 252.083256 75.395421 
L 275.495844 68.02369 
L 298.908431 62.790516 
L 322.321018 52.072572 
L 345.733606 48.198011 
L 369.146193 40.499206 
" clip-path="url(#pb4d385883e)" style="fill: none; stroke: #2ca02c; stroke-width: 1.5; stroke-linecap: square"/>
   </g>
   <g id="patch_3">
    <path d="M 49.564375 228.96 
L 49.564375 7.2 
" style="fill: none; stroke: #000000; stroke-width: 0.8; stroke-linejoin: miter; stroke-linecap: square"/>
   </g>
   <g id="patch_4">
    <path d="M 384.364375 228.96 
L 384.364375 7.2 
" style="fill: none; stroke: #000000; stroke-width: 0.8; stroke-linejoin: miter; stroke-linecap: square"/>
   </g>
   <g id="patch_5">
    <path d="M 49.564375 228.96 
L 384.364375 228.96 
" style="fill: none; stroke: #000000; stroke-width: 0.8; stroke-linejoin: miter; stroke-linecap: square"/>
   </g>
   <g id="patch_6">
    <path d="M 49.564375 7.2 
L 384.364375 7.2 
" style="fill: none; stroke: #000000; stroke-width: 0.8; stroke-linejoin: miter; stroke-linecap: square"/>
   </g>
   <g id="legend_1">
    <g id="patch_7">
     <path d="M 220.629375 222.46 
L 375.264375 222.46 
Q 377.864375 222.46 377.864375 219.86 
L 377.864375 144.83375 
Q 377.864375 142.23375 375.264375 142.23375 
L 220.629375 142.23375 
Q 218.029375 142.23375 218.029375 144.83375 
L 218.029375 219.86 
Q 218.029375 222.46 220.629375 222.46 
z
" style="fill: #ffffff; opacity: 0.8; stroke: #cccccc; stroke-linejoin: miter"/>
    </g>
    <g id="PathCollection_2">
     <g>
      <use xlink:href="#m3ca9856a46" x="236.229375" y="153.899219" style="fill: #f08080; stroke: #f08080"/>
     </g>
    </g>
    <g id="text_12">
     <!-- Exp. lower bound -->
     <g transform="translate(259.629375 157.311719)scale(0.13 -0.13)">
      <defs>
       <path id="DejaVuSans-45" d="M 628 4666 
L 3578 4666 
L 3578 4134 
L 1259 4134 
L 1259 2753 
L 3481 2753 
L 3481 2222 
L 1259 2222 
L 1259 531 
L 3634 531 
L 3634 0 
L 628 0 
L 628 4666 
z
" transform="scale(0.015625)"/>
       <path id="DejaVuSans-78" d="M 3513 3500 
L 2247 1797 
L 3578 0 
L 2900 0 
L 1881 1375 
L 863 0 
L 184 0 
L 1544 1831 
L 300 3500 
L 978 3500 
L 1906 2253 
L 2834 3500 
L 3513 3500 
z
" transform="scale(0.015625)"/>
       <path id="DejaVuSans-70" d="M 1159 525 
L 1159 -1331 
L 581 -1331 
L 581 3500 
L 1159 3500 
L 1159 2969 
Q 1341 3281 1617 3432 
Q 1894 3584 2278 3584 
Q 2916 3584 3314 3078 
Q 3713 2572 3713 1747 
Q 3713 922 3314 415 
Q 2916 -91 2278 -91 
Q 1894 -91 1617 61 
Q 1341 213 1159 525 
z
M 3116 1747 
Q 3116 2381 2855 2742 
Q 2594 3103 2138 3103 
Q 1681 3103 1420 2742 
Q 1159 2381 1159 1747 
Q 1159 1113 1420 752 
Q 1681 391 2138 391 
Q 2594 391 2855 752 
Q 3116 1113 3116 1747 
z
" transform="scale(0.015625)"/>
       <path id="DejaVuSans-6c" d="M 603 4863 
L 1178 4863 
L 1178 0 
L 603 0 
L 603 4863 
z
" transform="scale(0.015625)"/>
       <path id="DejaVuSans-77" d="M 269 3500 
L 844 3500 
L 1563 769 
L 2278 3500 
L 2956 3500 
L 3675 769 
L 4391 3500 
L 4966 3500 
L 4050 0 
L 3372 0 
L 2619 2869 
L 1863 0 
L 1184 0 
L 269 3500 
z
" transform="scale(0.015625)"/>
       <path id="DejaVuSans-6e" d="M 3513 2113 
L 3513 0 
L 2938 0 
L 2938 2094 
Q 2938 2591 2744 2837 
Q 2550 3084 2163 3084 
Q 1697 3084 1428 2787 
Q 1159 2491 1159 1978 
L 1159 0 
L 581 0 
L 581 3500 
L 1159 3500 
L 1159 2956 
Q 1366 3272 1645 3428 
Q 1925 3584 2291 3584 
Q 2894 3584 3203 3211 
Q 3513 2838 3513 2113 
z
" transform="scale(0.015625)"/>
       <path id="DejaVuSans-64" d="M 2906 2969 
L 2906 4863 
L 3481 4863 
L 3481 0 
L 2906 0 
L 2906 525 
Q 2725 213 2448 61 
Q 2172 -91 1784 -91 
Q 1150 -91 751 415 
Q 353 922 353 1747 
Q 353 2572 751 3078 
Q 1150 3584 1784 3584 
Q 2172 3584 2448 3432 
Q 2725 3281 2906 2969 
z
M 947 1747 
Q 947 1113 1208 752 
Q 1469 391 1925 391 
Q 2381 391 2643 752 
Q 2906 1113 2906 1747 
Q 2906 2381 2643 2742 
Q 2381 3103 1925 3103 
Q 1469 3103 1208 2742 
Q 947 2381 947 1747 
z
" transform="scale(0.015625)"/>
      </defs>
      <use xlink:href="#DejaVuSans-45"/>
      <use xlink:href="#DejaVuSans-78" x="63.183594"/>
      <use xlink:href="#DejaVuSans-70" x="122.363281"/>
      <use xlink:href="#DejaVuSans-2e" x="185.839844"/>
      <use xlink:href="#DejaVuSans-20" x="217.626953"/>
      <use xlink:href="#DejaVuSans-6c" x="249.414062"/>
      <use xlink:href="#DejaVuSans-6f" x="277.197266"/>
      <use xlink:href="#DejaVuSans-77" x="338.378906"/>
      <use xlink:href="#DejaVuSans-65" x="420.166016"/>
      <use xlink:href="#DejaVuSans-72" x="481.689453"/>
      <use xlink:href="#DejaVuSans-20" x="522.802734"/>
      <use xlink:href="#DejaVuSans-62" x="554.589844"/>
      <use xlink:href="#DejaVuSans-6f" x="618.066406"/>
      <use xlink:href="#DejaVuSans-75" x="679.248047"/>
      <use xlink:href="#DejaVuSans-6e" x="742.626953"/>
      <use xlink:href="#DejaVuSans-64" x="806.005859"/>
     </g>
    </g>
    <g id="line2d_13">
     <path d="M 223.229375 171.843281 
L 236.229375 171.843281 
L 249.229375 171.843281 
" style="fill: none; stroke: #1f77b4; stroke-width: 1.5; stroke-linecap: square"/>
    </g>
    <g id="text_13">
     <!-- g = 1 -->
     <g transform="translate(259.629375 176.393281)scale(0.13 -0.13)">
      <defs>
       <path id="DejaVuSans-67" d="M 2906 1791 
Q 2906 2416 2648 2759 
Q 2391 3103 1925 3103 
Q 1463 3103 1205 2759 
Q 947 2416 947 1791 
Q 947 1169 1205 825 
Q 1463 481 1925 481 
Q 2391 481 2648 825 
Q 2906 1169 2906 1791 
z
M 3481 434 
Q 3481 -459 3084 -895 
Q 2688 -1331 1869 -1331 
Q 1566 -1331 1297 -1286 
Q 1028 -1241 775 -1147 
L 775 -588 
Q 1028 -725 1275 -790 
Q 1522 -856 1778 -856 
Q 2344 -856 2625 -561 
Q 2906 -266 2906 331 
L 2906 616 
Q 2728 306 2450 153 
Q 2172 0 1784 0 
Q 1141 0 747 490 
Q 353 981 353 1791 
Q 353 2603 747 3093 
Q 1141 3584 1784 3584 
Q 2172 3584 2450 3431 
Q 2728 3278 2906 2969 
L 2906 3500 
L 3481 3500 
L 3481 434 
z
" transform="scale(0.015625)"/>
       <path id="DejaVuSans-3d" d="M 678 2906 
L 4684 2906 
L 4684 2381 
L 678 2381 
L 678 2906 
z
M 678 1631 
L 4684 1631 
L 4684 1100 
L 678 1100 
L 678 1631 
z
" transform="scale(0.015625)"/>
      </defs>
      <use xlink:href="#DejaVuSans-67"/>
      <use xlink:href="#DejaVuSans-20" x="63.476562"/>
      <use xlink:href="#DejaVuSans-3d" x="95.263672"/>
      <use xlink:href="#DejaVuSans-20" x="179.052734"/>
      <use xlink:href="#DejaVuSans-31" x="210.839844"/>
     </g>
    </g>
    <g id="line2d_14">
     <path d="M 223.229375 190.924844 
L 236.229375 190.924844 
L 249.229375 190.924844 
" style="fill: none; stroke: #ff7f0e; stroke-width: 1.5; stroke-linecap: square"/>
    </g>
    <g id="text_14">
     <!-- g = 3 -->
     <g transform="translate(259.629375 195.474844)scale(0.13 -0.13)">
      <defs>
       <path id="DejaVuSans-33" d="M 2597 2516 
Q 3050 2419 3304 2112 
Q 3559 1806 3559 1356 
Q 3559 666 3084 287 
Q 2609 -91 1734 -91 
Q 1441 -91 1130 -33 
Q 819 25 488 141 
L 488 750 
Q 750 597 1062 519 
Q 1375 441 1716 441 
Q 2309 441 2620 675 
Q 2931 909 2931 1356 
Q 2931 1769 2642 2001 
Q 2353 2234 1838 2234 
L 1294 2234 
L 1294 2753 
L 1863 2753 
Q 2328 2753 2575 2939 
Q 2822 3125 2822 3475 
Q 2822 3834 2567 4026 
Q 2313 4219 1838 4219 
Q 1578 4219 1281 4162 
Q 984 4106 628 3988 
L 628 4550 
Q 988 4650 1302 4700 
Q 1616 4750 1894 4750 
Q 2613 4750 3031 4423 
Q 3450 4097 3450 3541 
Q 3450 3153 3228 2886 
Q 3006 2619 2597 2516 
z
" transform="scale(0.015625)"/>
      </defs>
      <use xlink:href="#DejaVuSans-67"/>
      <use xlink:href="#DejaVuSans-20" x="63.476562"/>
      <use xlink:href="#DejaVuSans-3d" x="95.263672"/>
      <use xlink:href="#DejaVuSans-20" x="179.052734"/>
      <use xlink:href="#DejaVuSans-33" x="210.839844"/>
     </g>
    </g>
    <g id="line2d_15">
     <path d="M 223.229375 210.006406 
L 236.229375 210.006406 
L 249.229375 210.006406 
" style="fill: none; stroke: #2ca02c; stroke-width: 1.5; stroke-linecap: square"/>
    </g>
    <g id="text_15">
     <!-- g = 5 -->
     <g transform="translate(259.629375 214.556406)scale(0.13 -0.13)">
      <defs>
       <path id="DejaVuSans-35" d="M 691 4666 
L 3169 4666 
L 3169 4134 
L 1269 4134 
L 1269 2991 
Q 1406 3038 1543 3061 
Q 1681 3084 1819 3084 
Q 2600 3084 3056 2656 
Q 3513 2228 3513 1497 
Q 3513 744 3044 326 
Q 2575 -91 1722 -91 
Q 1428 -91 1123 -41 
Q 819 9 494 109 
L 494 744 
Q 775 591 1075 516 
Q 1375 441 1709 441 
Q 2250 441 2565 725 
Q 2881 1009 2881 1497 
Q 2881 1984 2565 2268 
Q 2250 2553 1709 2553 
Q 1456 2553 1204 2497 
Q 953 2441 691 2322 
L 691 4666 
z
" transform="scale(0.015625)"/>
      </defs>
      <use xlink:href="#DejaVuSans-67"/>
      <use xlink:href="#DejaVuSans-20" x="63.476562"/>
      <use xlink:href="#DejaVuSans-3d" x="95.263672"/>
      <use xlink:href="#DejaVuSans-20" x="179.052734"/>
      <use xlink:href="#DejaVuSans-35" x="210.839844"/>
     </g>
    </g>
   </g>
  </g>
 </g>
 <defs>
  <clipPath id="pb4d385883e">
   <rect x="49.564375" y="7.2" width="334.8" height="221.76"/>
  </clipPath>
 </defs>
</svg>
