<?xml version="1.0" encoding="utf-8" standalone="no"?>
<!DOCTYPE svg PUBLIC "-//W3C//DTD SVG 1.1//EN"
  "http://www.w3.org/Graphics/SVG/1.1/DTD/svg11.dtd">
<svg xmlns:xlink="http://www.w3.org/1999/xlink" width="408.10125pt" height="310.86825pt" viewBox="0 0 408.10125 310.86825" xmlns="http://www.w3.org/2000/svg" version="1.1">
 <metadata>
  <rdf:RDF xmlns:dc="http://purl.org/dc/elements/1.1/" xmlns:cc="http://creativecommons.org/ns#" xmlns:rdf="http://www.w3.org/1999/02/22-rdf-syntax-ns#">
   <cc:Work>
    <dc:type rdf:resource="http://purl.org/dc/dcmitype/StillImage"/>
    <dc:date>2022-11-04T16:07:37.831814</dc:date>
    <dc:format>image/svg+xml</dc:format>
    <dc:creator>
     <cc:Agent>
      <dc:title>Matplotlib v3.6.1, https://matplotlib.org/</dc:title>
     </cc:Agent>
    </dc:creator>
   </cc:Work>
  </rdf:RDF>
 </metadata>
 <defs>
  <style type="text/css">*{stroke-linejoin: round; stroke-linecap: butt}</style>
 </defs>
 <g id="figure_1">
  <g id="patch_1">
   <path d="M 0 310.86825 
L 408.10125 310.86825 
L 408.10125 0 
L 0 0 
z
" style="fill: #ffffff"/>
  </g>
  <g id="axes_1">
   <g id="patch_2">
    <path d="M 43.78125 273.312 
L 400.90125 273.312 
L 400.90125 7.2 
L 43.78125 7.2 
z
" style="fill: #ffffff"/>
   </g>
   <g id="matplotlib.axis_1">
    <g id="xtick_1">
     <g id="line2d_1">
      <defs>
       <path id="mcae21c40e9" d="M 0 0 
L 0 3.5 
" style="stroke: #000000; stroke-width: 0.8"/>
      </defs>
      <g>
       <use xlink:href="#mcae21c40e9" x="85.986341" y="273.312" style="stroke: #000000; stroke-width: 0.8"/>
      </g>
     </g>
     <g id="text_1">
      <!-- 40 -->
      <g transform="translate(79.623841 287.910437) scale(0.1 -0.1)">
       <defs>
        <path id="DejaVuSans-34" d="M 2419 4116 
L 825 1625 
L 2419 1625 
L 2419 4116 
z
M 2253 4666 
L 3047 4666 
L 3047 1625 
L 3713 1625 
L 3713 1100 
L 3047 1100 
L 3047 0 
L 2419 0 
L 2419 1100 
L 313 1100 
L 313 1709 
L 2253 4666 
z
" transform="scale(0.015625)"/>
        <path id="DejaVuSans-30" d="M 2034 4250 
Q 1547 4250 1301 3770 
Q 1056 3291 1056 2328 
Q 1056 1369 1301 889 
Q 1547 409 2034 409 
Q 2525 409 2770 889 
Q 3016 1369 3016 2328 
Q 3016 3291 2770 3770 
Q 2525 4250 2034 4250 
z
M 2034 4750 
Q 2819 4750 3233 4129 
Q 3647 3509 3647 2328 
Q 3647 1150 3233 529 
Q 2819 -91 2034 -91 
Q 1250 -91 836 529 
Q 422 1150 422 2328 
Q 422 3509 836 4129 
Q 1250 4750 2034 4750 
z
" transform="scale(0.015625)"/>
       </defs>
       <use xlink:href="#DejaVuSans-34"/>
       <use xlink:href="#DejaVuSans-30" x="63.623047"/>
      </g>
     </g>
    </g>
    <g id="xtick_2">
     <g id="line2d_2">
      <g>
       <use xlink:href="#mcae21c40e9" x="150.91725" y="273.312" style="stroke: #000000; stroke-width: 0.8"/>
      </g>
     </g>
     <g id="text_2">
      <!-- 60 -->
      <g transform="translate(144.55475 287.910437) scale(0.1 -0.1)">
       <defs>
        <path id="DejaVuSans-36" d="M 2113 2584 
Q 1688 2584 1439 2293 
Q 1191 2003 1191 1497 
Q 1191 994 1439 701 
Q 1688 409 2113 409 
Q 2538 409 2786 701 
Q 3034 994 3034 1497 
Q 3034 2003 2786 2293 
Q 2538 2584 2113 2584 
z
M 3366 4563 
L 3366 3988 
Q 3128 4100 2886 4159 
Q 2644 4219 2406 4219 
Q 1781 4219 1451 3797 
Q 1122 3375 1075 2522 
Q 1259 2794 1537 2939 
Q 1816 3084 2150 3084 
Q 2853 3084 3261 2657 
Q 3669 2231 3669 1497 
Q 3669 778 3244 343 
Q 2819 -91 2113 -91 
Q 1303 -91 875 529 
Q 447 1150 447 2328 
Q 447 3434 972 4092 
Q 1497 4750 2381 4750 
Q 2619 4750 2861 4703 
Q 3103 4656 3366 4563 
z
" transform="scale(0.015625)"/>
       </defs>
       <use xlink:href="#DejaVuSans-36"/>
       <use xlink:href="#DejaVuSans-30" x="63.623047"/>
      </g>
     </g>
    </g>
    <g id="xtick_3">
     <g id="line2d_3">
      <g>
       <use xlink:href="#mcae21c40e9" x="215.848159" y="273.312" style="stroke: #000000; stroke-width: 0.8"/>
      </g>
     </g>
     <g id="text_3">
      <!-- 80 -->
      <g transform="translate(209.485659 287.910437) scale(0.1 -0.1)">
       <defs>
        <path id="DejaVuSans-38" d="M 2034 2216 
Q 1584 2216 1326 1975 
Q 1069 1734 1069 1313 
Q 1069 891 1326 650 
Q 1584 409 2034 409 
Q 2484 409 2743 651 
Q 3003 894 3003 1313 
Q 3003 1734 2745 1975 
Q 2488 2216 2034 2216 
z
M 1403 2484 
Q 997 2584 770 2862 
Q 544 3141 544 3541 
Q 544 4100 942 4425 
Q 1341 4750 2034 4750 
Q 2731 4750 3128 4425 
Q 3525 4100 3525 3541 
Q 3525 3141 3298 2862 
Q 3072 2584 2669 2484 
Q 3125 2378 3379 2068 
Q 3634 1759 3634 1313 
Q 3634 634 3220 271 
Q 2806 -91 2034 -91 
Q 1263 -91 848 271 
Q 434 634 434 1313 
Q 434 1759 690 2068 
Q 947 2378 1403 2484 
z
M 1172 3481 
Q 1172 3119 1398 2916 
Q 1625 2713 2034 2713 
Q 2441 2713 2670 2916 
Q 2900 3119 2900 3481 
Q 2900 3844 2670 4047 
Q 2441 4250 2034 4250 
Q 1625 4250 1398 4047 
Q 1172 3844 1172 3481 
z
" transform="scale(0.015625)"/>
       </defs>
       <use xlink:href="#DejaVuSans-38"/>
       <use xlink:href="#DejaVuSans-30" x="63.623047"/>
      </g>
     </g>
    </g>
    <g id="xtick_4">
     <g id="line2d_4">
      <g>
       <use xlink:href="#mcae21c40e9" x="280.779068" y="273.312" style="stroke: #000000; stroke-width: 0.8"/>
      </g>
     </g>
     <g id="text_4">
      <!-- 100 -->
      <g transform="translate(271.235318 287.910437) scale(0.1 -0.1)">
       <defs>
        <path id="DejaVuSans-31" d="M 794 531 
L 1825 531 
L 1825 4091 
L 703 3866 
L 703 4441 
L 1819 4666 
L 2450 4666 
L 2450 531 
L 3481 531 
L 3481 0 
L 794 0 
L 794 531 
z
" transform="scale(0.015625)"/>
       </defs>
       <use xlink:href="#DejaVuSans-31"/>
       <use xlink:href="#DejaVuSans-30" x="63.623047"/>
       <use xlink:href="#DejaVuSans-30" x="127.246094"/>
      </g>
     </g>
    </g>
    <g id="xtick_5">
     <g id="line2d_5">
      <g>
       <use xlink:href="#mcae21c40e9" x="345.709977" y="273.312" style="stroke: #000000; stroke-width: 0.8"/>
      </g>
     </g>
     <g id="text_5">
      <!-- 120 -->
      <g transform="translate(336.166227 287.910437) scale(0.1 -0.1)">
       <defs>
        <path id="DejaVuSans-32" d="M 1228 531 
L 3431 531 
L 3431 0 
L 469 0 
L 469 531 
Q 828 903 1448 1529 
Q 2069 2156 2228 2338 
Q 2531 2678 2651 2914 
Q 2772 3150 2772 3378 
Q 2772 3750 2511 3984 
Q 2250 4219 1831 4219 
Q 1534 4219 1204 4116 
Q 875 4013 500 3803 
L 500 4441 
Q 881 4594 1212 4672 
Q 1544 4750 1819 4750 
Q 2544 4750 2975 4387 
Q 3406 4025 3406 3419 
Q 3406 3131 3298 2873 
Q 3191 2616 2906 2266 
Q 2828 2175 2409 1742 
Q 1991 1309 1228 531 
z
" transform="scale(0.015625)"/>
       </defs>
       <use xlink:href="#DejaVuSans-31"/>
       <use xlink:href="#DejaVuSans-32" x="63.623047"/>
       <use xlink:href="#DejaVuSans-30" x="127.246094"/>
      </g>
     </g>
    </g>
    <g id="text_6">
     <!-- Number of redundant columns -->
     <g transform="translate(145.76 301.588562) scale(0.1 -0.1)">
      <defs>
       <path id="DejaVuSans-4e" d="M 628 4666 
L 1478 4666 
L 3547 763 
L 3547 4666 
L 4159 4666 
L 4159 0 
L 3309 0 
L 1241 3903 
L 1241 0 
L 628 0 
L 628 4666 
z
" transform="scale(0.015625)"/>
       <path id="DejaVuSans-75" d="M 544 1381 
L 544 3500 
L 1119 3500 
L 1119 1403 
Q 1119 906 1312 657 
Q 1506 409 1894 409 
Q 2359 409 2629 706 
Q 2900 1003 2900 1516 
L 2900 3500 
L 3475 3500 
L 3475 0 
L 2900 0 
L 2900 538 
Q 2691 219 2414 64 
Q 2138 -91 1772 -91 
Q 1169 -91 856 284 
Q 544 659 544 1381 
z
M 1991 3584 
L 1991 3584 
z
" transform="scale(0.015625)"/>
       <path id="DejaVuSans-6d" d="M 3328 2828 
Q 3544 3216 3844 3400 
Q 4144 3584 4550 3584 
Q 5097 3584 5394 3201 
Q 5691 2819 5691 2113 
L 5691 0 
L 5113 0 
L 5113 2094 
Q 5113 2597 4934 2840 
Q 4756 3084 4391 3084 
Q 3944 3084 3684 2787 
Q 3425 2491 3425 1978 
L 3425 0 
L 2847 0 
L 2847 2094 
Q 2847 2600 2669 2842 
Q 2491 3084 2119 3084 
Q 1678 3084 1418 2786 
Q 1159 2488 1159 1978 
L 1159 0 
L 581 0 
L 581 3500 
L 1159 3500 
L 1159 2956 
Q 1356 3278 1631 3431 
Q 1906 3584 2284 3584 
Q 2666 3584 2933 3390 
Q 3200 3197 3328 2828 
z
" transform="scale(0.015625)"/>
       <path id="DejaVuSans-62" d="M 3116 1747 
Q 3116 2381 2855 2742 
Q 2594 3103 2138 3103 
Q 1681 3103 1420 2742 
Q 1159 2381 1159 1747 
Q 1159 1113 1420 752 
Q 1681 391 2138 391 
Q 2594 391 2855 752 
Q 3116 1113 3116 1747 
z
M 1159 2969 
Q 1341 3281 1617 3432 
Q 1894 3584 2278 3584 
Q 2916 3584 3314 3078 
Q 3713 2572 3713 1747 
Q 3713 922 3314 415 
Q 2916 -91 2278 -91 
Q 1894 -91 1617 61 
Q 1341 213 1159 525 
L 1159 0 
L 581 0 
L 581 4863 
L 1159 4863 
L 1159 2969 
z
" transform="scale(0.015625)"/>
       <path id="DejaVuSans-65" d="M 3597 1894 
L 3597 1613 
L 953 1613 
Q 991 1019 1311 708 
Q 1631 397 2203 397 
Q 2534 397 2845 478 
Q 3156 559 3463 722 
L 3463 178 
Q 3153 47 2828 -22 
Q 2503 -91 2169 -91 
Q 1331 -91 842 396 
Q 353 884 353 1716 
Q 353 2575 817 3079 
Q 1281 3584 2069 3584 
Q 2775 3584 3186 3129 
Q 3597 2675 3597 1894 
z
M 3022 2063 
Q 3016 2534 2758 2815 
Q 2500 3097 2075 3097 
Q 1594 3097 1305 2825 
Q 1016 2553 972 2059 
L 3022 2063 
z
" transform="scale(0.015625)"/>
       <path id="DejaVuSans-72" d="M 2631 2963 
Q 2534 3019 2420 3045 
Q 2306 3072 2169 3072 
Q 1681 3072 1420 2755 
Q 1159 2438 1159 1844 
L 1159 0 
L 581 0 
L 581 3500 
L 1159 3500 
L 1159 2956 
Q 1341 3275 1631 3429 
Q 1922 3584 2338 3584 
Q 2397 3584 2469 3576 
Q 2541 3569 2628 3553 
L 2631 2963 
z
" transform="scale(0.015625)"/>
       <path id="DejaVuSans-20" transform="scale(0.015625)"/>
       <path id="DejaVuSans-6f" d="M 1959 3097 
Q 1497 3097 1228 2736 
Q 959 2375 959 1747 
Q 959 1119 1226 758 
Q 1494 397 1959 397 
Q 2419 397 2687 759 
Q 2956 1122 2956 1747 
Q 2956 2369 2687 2733 
Q 2419 3097 1959 3097 
z
M 1959 3584 
Q 2709 3584 3137 3096 
Q 3566 2609 3566 1747 
Q 3566 888 3137 398 
Q 2709 -91 1959 -91 
Q 1206 -91 779 398 
Q 353 888 353 1747 
Q 353 2609 779 3096 
Q 1206 3584 1959 3584 
z
" transform="scale(0.015625)"/>
       <path id="DejaVuSans-66" d="M 2375 4863 
L 2375 4384 
L 1825 4384 
Q 1516 4384 1395 4259 
Q 1275 4134 1275 3809 
L 1275 3500 
L 2222 3500 
L 2222 3053 
L 1275 3053 
L 1275 0 
L 697 0 
L 697 3053 
L 147 3053 
L 147 3500 
L 697 3500 
L 697 3744 
Q 697 4328 969 4595 
Q 1241 4863 1831 4863 
L 2375 4863 
z
" transform="scale(0.015625)"/>
       <path id="DejaVuSans-64" d="M 2906 2969 
L 2906 4863 
L 3481 4863 
L 3481 0 
L 2906 0 
L 2906 525 
Q 2725 213 2448 61 
Q 2172 -91 1784 -91 
Q 1150 -91 751 415 
Q 353 922 353 1747 
Q 353 2572 751 3078 
Q 1150 3584 1784 3584 
Q 2172 3584 2448 3432 
Q 2725 3281 2906 2969 
z
M 947 1747 
Q 947 1113 1208 752 
Q 1469 391 1925 391 
Q 2381 391 2643 752 
Q 2906 1113 2906 1747 
Q 2906 2381 2643 2742 
Q 2381 3103 1925 3103 
Q 1469 3103 1208 2742 
Q 947 2381 947 1747 
z
" transform="scale(0.015625)"/>
       <path id="DejaVuSans-6e" d="M 3513 2113 
L 3513 0 
L 2938 0 
L 2938 2094 
Q 2938 2591 2744 2837 
Q 2550 3084 2163 3084 
Q 1697 3084 1428 2787 
Q 1159 2491 1159 1978 
L 1159 0 
L 581 0 
L 581 3500 
L 1159 3500 
L 1159 2956 
Q 1366 3272 1645 3428 
Q 1925 3584 2291 3584 
Q 2894 3584 3203 3211 
Q 3513 2838 3513 2113 
z
" transform="scale(0.015625)"/>
       <path id="DejaVuSans-61" d="M 2194 1759 
Q 1497 1759 1228 1600 
Q 959 1441 959 1056 
Q 959 750 1161 570 
Q 1363 391 1709 391 
Q 2188 391 2477 730 
Q 2766 1069 2766 1631 
L 2766 1759 
L 2194 1759 
z
M 3341 1997 
L 3341 0 
L 2766 0 
L 2766 531 
Q 2569 213 2275 61 
Q 1981 -91 1556 -91 
Q 1019 -91 701 211 
Q 384 513 384 1019 
Q 384 1609 779 1909 
Q 1175 2209 1959 2209 
L 2766 2209 
L 2766 2266 
Q 2766 2663 2505 2880 
Q 2244 3097 1772 3097 
Q 1472 3097 1187 3025 
Q 903 2953 641 2809 
L 641 3341 
Q 956 3463 1253 3523 
Q 1550 3584 1831 3584 
Q 2591 3584 2966 3190 
Q 3341 2797 3341 1997 
z
" transform="scale(0.015625)"/>
       <path id="DejaVuSans-74" d="M 1172 4494 
L 1172 3500 
L 2356 3500 
L 2356 3053 
L 1172 3053 
L 1172 1153 
Q 1172 725 1289 603 
Q 1406 481 1766 481 
L 2356 481 
L 2356 0 
L 1766 0 
Q 1100 0 847 248 
Q 594 497 594 1153 
L 594 3053 
L 172 3053 
L 172 3500 
L 594 3500 
L 594 4494 
L 1172 4494 
z
" transform="scale(0.015625)"/>
       <path id="DejaVuSans-63" d="M 3122 3366 
L 3122 2828 
Q 2878 2963 2633 3030 
Q 2388 3097 2138 3097 
Q 1578 3097 1268 2742 
Q 959 2388 959 1747 
Q 959 1106 1268 751 
Q 1578 397 2138 397 
Q 2388 397 2633 464 
Q 2878 531 3122 666 
L 3122 134 
Q 2881 22 2623 -34 
Q 2366 -91 2075 -91 
Q 1284 -91 818 406 
Q 353 903 353 1747 
Q 353 2603 823 3093 
Q 1294 3584 2113 3584 
Q 2378 3584 2631 3529 
Q 2884 3475 3122 3366 
z
" transform="scale(0.015625)"/>
       <path id="DejaVuSans-6c" d="M 603 4863 
L 1178 4863 
L 1178 0 
L 603 0 
L 603 4863 
z
" transform="scale(0.015625)"/>
       <path id="DejaVuSans-73" d="M 2834 3397 
L 2834 2853 
Q 2591 2978 2328 3040 
Q 2066 3103 1784 3103 
Q 1356 3103 1142 2972 
Q 928 2841 928 2578 
Q 928 2378 1081 2264 
Q 1234 2150 1697 2047 
L 1894 2003 
Q 2506 1872 2764 1633 
Q 3022 1394 3022 966 
Q 3022 478 2636 193 
Q 2250 -91 1575 -91 
Q 1294 -91 989 -36 
Q 684 19 347 128 
L 347 722 
Q 666 556 975 473 
Q 1284 391 1588 391 
Q 1994 391 2212 530 
Q 2431 669 2431 922 
Q 2431 1156 2273 1281 
Q 2116 1406 1581 1522 
L 1381 1569 
Q 847 1681 609 1914 
Q 372 2147 372 2553 
Q 372 3047 722 3315 
Q 1072 3584 1716 3584 
Q 2034 3584 2315 3537 
Q 2597 3491 2834 3397 
z
" transform="scale(0.015625)"/>
      </defs>
      <use xlink:href="#DejaVuSans-4e"/>
      <use xlink:href="#DejaVuSans-75" x="74.804688"/>
      <use xlink:href="#DejaVuSans-6d" x="138.183594"/>
      <use xlink:href="#DejaVuSans-62" x="235.595703"/>
      <use xlink:href="#DejaVuSans-65" x="299.072266"/>
      <use xlink:href="#DejaVuSans-72" x="360.595703"/>
      <use xlink:href="#DejaVuSans-20" x="401.708984"/>
      <use xlink:href="#DejaVuSans-6f" x="433.496094"/>
      <use xlink:href="#DejaVuSans-66" x="494.677734"/>
      <use xlink:href="#DejaVuSans-20" x="529.882812"/>
      <use xlink:href="#DejaVuSans-72" x="561.669922"/>
      <use xlink:href="#DejaVuSans-65" x="600.533203"/>
      <use xlink:href="#DejaVuSans-64" x="662.056641"/>
      <use xlink:href="#DejaVuSans-75" x="725.533203"/>
      <use xlink:href="#DejaVuSans-6e" x="788.912109"/>
      <use xlink:href="#DejaVuSans-64" x="852.291016"/>
      <use xlink:href="#DejaVuSans-61" x="915.767578"/>
      <use xlink:href="#DejaVuSans-6e" x="977.046875"/>
      <use xlink:href="#DejaVuSans-74" x="1040.425781"/>
      <use xlink:href="#DejaVuSans-20" x="1079.634766"/>
      <use xlink:href="#DejaVuSans-63" x="1111.421875"/>
      <use xlink:href="#DejaVuSans-6f" x="1166.402344"/>
      <use xlink:href="#DejaVuSans-6c" x="1227.583984"/>
      <use xlink:href="#DejaVuSans-75" x="1255.367188"/>
      <use xlink:href="#DejaVuSans-6d" x="1318.746094"/>
      <use xlink:href="#DejaVuSans-6e" x="1416.158203"/>
      <use xlink:href="#DejaVuSans-73" x="1479.537109"/>
     </g>
    </g>
   </g>
   <g id="matplotlib.axis_2">
    <g id="ytick_1">
     <g id="line2d_6">
      <defs>
       <path id="m1813eaa387" d="M 0 0 
L -3.5 0 
" style="stroke: #000000; stroke-width: 0.8"/>
      </defs>
      <g>
       <use xlink:href="#m1813eaa387" x="43.78125" y="258.391784" style="stroke: #000000; stroke-width: 0.8"/>
      </g>
     </g>
     <g id="text_7">
      <!-- 0.0 -->
      <g transform="translate(20.878125 262.191002) scale(0.1 -0.1)">
       <defs>
        <path id="DejaVuSans-2e" d="M 684 794 
L 1344 794 
L 1344 0 
L 684 0 
L 684 794 
z
" transform="scale(0.015625)"/>
       </defs>
       <use xlink:href="#DejaVuSans-30"/>
       <use xlink:href="#DejaVuSans-2e" x="63.623047"/>
       <use xlink:href="#DejaVuSans-30" x="95.410156"/>
      </g>
     </g>
    </g>
    <g id="ytick_2">
     <g id="line2d_7">
      <g>
       <use xlink:href="#m1813eaa387" x="43.78125" y="218.577508" style="stroke: #000000; stroke-width: 0.8"/>
      </g>
     </g>
     <g id="text_8">
      <!-- 0.1 -->
      <g transform="translate(20.878125 222.376727) scale(0.1 -0.1)">
       <use xlink:href="#DejaVuSans-30"/>
       <use xlink:href="#DejaVuSans-2e" x="63.623047"/>
       <use xlink:href="#DejaVuSans-31" x="95.410156"/>
      </g>
     </g>
    </g>
    <g id="ytick_3">
     <g id="line2d_8">
      <g>
       <use xlink:href="#m1813eaa387" x="43.78125" y="178.763232" style="stroke: #000000; stroke-width: 0.8"/>
      </g>
     </g>
     <g id="text_9">
      <!-- 0.2 -->
      <g transform="translate(20.878125 182.562451) scale(0.1 -0.1)">
       <use xlink:href="#DejaVuSans-30"/>
       <use xlink:href="#DejaVuSans-2e" x="63.623047"/>
       <use xlink:href="#DejaVuSans-32" x="95.410156"/>
      </g>
     </g>
    </g>
    <g id="ytick_4">
     <g id="line2d_9">
      <g>
       <use xlink:href="#m1813eaa387" x="43.78125" y="138.948956" style="stroke: #000000; stroke-width: 0.8"/>
      </g>
     </g>
     <g id="text_10">
      <!-- 0.3 -->
      <g transform="translate(20.878125 142.748175) scale(0.1 -0.1)">
       <defs>
        <path id="DejaVuSans-33" d="M 2597 2516 
Q 3050 2419 3304 2112 
Q 3559 1806 3559 1356 
Q 3559 666 3084 287 
Q 2609 -91 1734 -91 
Q 1441 -91 1130 -33 
Q 819 25 488 141 
L 488 750 
Q 750 597 1062 519 
Q 1375 441 1716 441 
Q 2309 441 2620 675 
Q 2931 909 2931 1356 
Q 2931 1769 2642 2001 
Q 2353 2234 1838 2234 
L 1294 2234 
L 1294 2753 
L 1863 2753 
Q 2328 2753 2575 2939 
Q 2822 3125 2822 3475 
Q 2822 3834 2567 4026 
Q 2313 4219 1838 4219 
Q 1578 4219 1281 4162 
Q 984 4106 628 3988 
L 628 4550 
Q 988 4650 1302 4700 
Q 1616 4750 1894 4750 
Q 2613 4750 3031 4423 
Q 3450 4097 3450 3541 
Q 3450 3153 3228 2886 
Q 3006 2619 2597 2516 
z
" transform="scale(0.015625)"/>
       </defs>
       <use xlink:href="#DejaVuSans-30"/>
       <use xlink:href="#DejaVuSans-2e" x="63.623047"/>
       <use xlink:href="#DejaVuSans-33" x="95.410156"/>
      </g>
     </g>
    </g>
    <g id="ytick_5">
     <g id="line2d_10">
      <g>
       <use xlink:href="#m1813eaa387" x="43.78125" y="99.134681" style="stroke: #000000; stroke-width: 0.8"/>
      </g>
     </g>
     <g id="text_11">
      <!-- 0.4 -->
      <g transform="translate(20.878125 102.933899) scale(0.1 -0.1)">
       <use xlink:href="#DejaVuSans-30"/>
       <use xlink:href="#DejaVuSans-2e" x="63.623047"/>
       <use xlink:href="#DejaVuSans-34" x="95.410156"/>
      </g>
     </g>
    </g>
    <g id="ytick_6">
     <g id="line2d_11">
      <g>
       <use xlink:href="#m1813eaa387" x="43.78125" y="59.320405" style="stroke: #000000; stroke-width: 0.8"/>
      </g>
     </g>
     <g id="text_12">
      <!-- 0.5 -->
      <g transform="translate(20.878125 63.119624) scale(0.1 -0.1)">
       <defs>
        <path id="DejaVuSans-35" d="M 691 4666 
L 3169 4666 
L 3169 4134 
L 1269 4134 
L 1269 2991 
Q 1406 3038 1543 3061 
Q 1681 3084 1819 3084 
Q 2600 3084 3056 2656 
Q 3513 2228 3513 1497 
Q 3513 744 3044 326 
Q 2575 -91 1722 -91 
Q 1428 -91 1123 -41 
Q 819 9 494 109 
L 494 744 
Q 775 591 1075 516 
Q 1375 441 1709 441 
Q 2250 441 2565 725 
Q 2881 1009 2881 1497 
Q 2881 1984 2565 2268 
Q 2250 2553 1709 2553 
Q 1456 2553 1204 2497 
Q 953 2441 691 2322 
L 691 4666 
z
" transform="scale(0.015625)"/>
       </defs>
       <use xlink:href="#DejaVuSans-30"/>
       <use xlink:href="#DejaVuSans-2e" x="63.623047"/>
       <use xlink:href="#DejaVuSans-35" x="95.410156"/>
      </g>
     </g>
    </g>
    <g id="ytick_7">
     <g id="line2d_12">
      <g>
       <use xlink:href="#m1813eaa387" x="43.78125" y="19.506129" style="stroke: #000000; stroke-width: 0.8"/>
      </g>
     </g>
     <g id="text_13">
      <!-- 0.6 -->
      <g transform="translate(20.878125 23.305348) scale(0.1 -0.1)">
       <use xlink:href="#DejaVuSans-30"/>
       <use xlink:href="#DejaVuSans-2e" x="63.623047"/>
       <use xlink:href="#DejaVuSans-36" x="95.410156"/>
      </g>
     </g>
    </g>
    <g id="text_14">
     <!-- Success probability -->
     <g transform="translate(14.798438 188.648187) rotate(-90) scale(0.1 -0.1)">
      <defs>
       <path id="DejaVuSans-53" d="M 3425 4513 
L 3425 3897 
Q 3066 4069 2747 4153 
Q 2428 4238 2131 4238 
Q 1616 4238 1336 4038 
Q 1056 3838 1056 3469 
Q 1056 3159 1242 3001 
Q 1428 2844 1947 2747 
L 2328 2669 
Q 3034 2534 3370 2195 
Q 3706 1856 3706 1288 
Q 3706 609 3251 259 
Q 2797 -91 1919 -91 
Q 1588 -91 1214 -16 
Q 841 59 441 206 
L 441 856 
Q 825 641 1194 531 
Q 1563 422 1919 422 
Q 2459 422 2753 634 
Q 3047 847 3047 1241 
Q 3047 1584 2836 1778 
Q 2625 1972 2144 2069 
L 1759 2144 
Q 1053 2284 737 2584 
Q 422 2884 422 3419 
Q 422 4038 858 4394 
Q 1294 4750 2059 4750 
Q 2388 4750 2728 4690 
Q 3069 4631 3425 4513 
z
" transform="scale(0.015625)"/>
       <path id="DejaVuSans-70" d="M 1159 525 
L 1159 -1331 
L 581 -1331 
L 581 3500 
L 1159 3500 
L 1159 2969 
Q 1341 3281 1617 3432 
Q 1894 3584 2278 3584 
Q 2916 3584 3314 3078 
Q 3713 2572 3713 1747 
Q 3713 922 3314 415 
Q 2916 -91 2278 -91 
Q 1894 -91 1617 61 
Q 1341 213 1159 525 
z
M 3116 1747 
Q 3116 2381 2855 2742 
Q 2594 3103 2138 3103 
Q 1681 3103 1420 2742 
Q 1159 2381 1159 1747 
Q 1159 1113 1420 752 
Q 1681 391 2138 391 
Q 2594 391 2855 752 
Q 3116 1113 3116 1747 
z
" transform="scale(0.015625)"/>
       <path id="DejaVuSans-69" d="M 603 3500 
L 1178 3500 
L 1178 0 
L 603 0 
L 603 3500 
z
M 603 4863 
L 1178 4863 
L 1178 4134 
L 603 4134 
L 603 4863 
z
" transform="scale(0.015625)"/>
       <path id="DejaVuSans-79" d="M 2059 -325 
Q 1816 -950 1584 -1140 
Q 1353 -1331 966 -1331 
L 506 -1331 
L 506 -850 
L 844 -850 
Q 1081 -850 1212 -737 
Q 1344 -625 1503 -206 
L 1606 56 
L 191 3500 
L 800 3500 
L 1894 763 
L 2988 3500 
L 3597 3500 
L 2059 -325 
z
" transform="scale(0.015625)"/>
      </defs>
      <use xlink:href="#DejaVuSans-53"/>
      <use xlink:href="#DejaVuSans-75" x="63.476562"/>
      <use xlink:href="#DejaVuSans-63" x="126.855469"/>
      <use xlink:href="#DejaVuSans-63" x="181.835938"/>
      <use xlink:href="#DejaVuSans-65" x="236.816406"/>
      <use xlink:href="#DejaVuSans-73" x="298.339844"/>
      <use xlink:href="#DejaVuSans-73" x="350.439453"/>
      <use xlink:href="#DejaVuSans-20" x="402.539062"/>
      <use xlink:href="#DejaVuSans-70" x="434.326172"/>
      <use xlink:href="#DejaVuSans-72" x="497.802734"/>
      <use xlink:href="#DejaVuSans-6f" x="536.666016"/>
      <use xlink:href="#DejaVuSans-62" x="597.847656"/>
      <use xlink:href="#DejaVuSans-61" x="661.324219"/>
      <use xlink:href="#DejaVuSans-62" x="722.603516"/>
      <use xlink:href="#DejaVuSans-69" x="786.080078"/>
      <use xlink:href="#DejaVuSans-6c" x="813.863281"/>
      <use xlink:href="#DejaVuSans-69" x="841.646484"/>
      <use xlink:href="#DejaVuSans-74" x="869.429688"/>
      <use xlink:href="#DejaVuSans-79" x="908.638672"/>
     </g>
    </g>
   </g>
   <g id="LineCollection_1">
    <path d="M 60.013977 87.809181 
L 60.013977 30.831628 
" clip-path="url(#pedd6ad6a44)" style="fill: none; stroke: #1f77b4; stroke-width: 1.5"/>
    <path d="M 73.000159 93.180399 
L 73.000159 31.034409 
" clip-path="url(#pedd6ad6a44)" style="fill: none; stroke: #1f77b4; stroke-width: 1.5"/>
    <path d="M 85.986341 78.066782 
L 85.986341 26.240889 
" clip-path="url(#pedd6ad6a44)" style="fill: none; stroke: #1f77b4; stroke-width: 1.5"/>
    <path d="M 98.972523 90.178586 
L 98.972523 34.036222 
" clip-path="url(#pedd6ad6a44)" style="fill: none; stroke: #1f77b4; stroke-width: 1.5"/>
    <path d="M 111.958705 95.624932 
L 111.958705 37.349017 
" clip-path="url(#pedd6ad6a44)" style="fill: none; stroke: #1f77b4; stroke-width: 1.5"/>
    <path d="M 124.944886 108.113885 
L 124.944886 64.674339 
" clip-path="url(#pedd6ad6a44)" style="fill: none; stroke: #1f77b4; stroke-width: 1.5"/>
    <path d="M 137.931068 144.41193 
L 137.931068 115.967702 
" clip-path="url(#pedd6ad6a44)" style="fill: none; stroke: #1f77b4; stroke-width: 1.5"/>
    <path d="M 150.91725 203.737017 
L 150.91725 161.752302 
" clip-path="url(#pedd6ad6a44)" style="fill: none; stroke: #1f77b4; stroke-width: 1.5"/>
    <path d="M 163.903432 237.143041 
L 163.903432 210.363686 
" clip-path="url(#pedd6ad6a44)" style="fill: none; stroke: #1f77b4; stroke-width: 1.5"/>
    <path d="M 176.889614 259.611063 
L 176.889614 240.450508 
" clip-path="url(#pedd6ad6a44)" style="fill: none; stroke: #1f77b4; stroke-width: 1.5"/>
    <path d="M 189.875795 259.849087 
L 189.875795 252.953052 
" clip-path="url(#pedd6ad6a44)" style="fill: none; stroke: #1f77b4; stroke-width: 1.5"/>
    <path d="M 202.861977 258.391784 
L 202.861977 258.391784 
" clip-path="url(#pedd6ad6a44)" style="fill: none; stroke: #1f77b4; stroke-width: 1.5"/>
    <path d="M 215.848159 258.391784 
L 215.848159 258.391784 
" clip-path="url(#pedd6ad6a44)" style="fill: none; stroke: #1f77b4; stroke-width: 1.5"/>
    <path d="M 228.834341 258.391784 
L 228.834341 258.391784 
" clip-path="url(#pedd6ad6a44)" style="fill: none; stroke: #1f77b4; stroke-width: 1.5"/>
    <path d="M 241.820523 258.391784 
L 241.820523 258.391784 
" clip-path="url(#pedd6ad6a44)" style="fill: none; stroke: #1f77b4; stroke-width: 1.5"/>
   </g>
   <g id="LineCollection_2">
    <path d="M 98.972523 94.177506 
L 98.972523 39.592729 
" clip-path="url(#pedd6ad6a44)" style="fill: none; stroke: #ff7f0e; stroke-width: 1.5"/>
    <path d="M 111.958705 81.251402 
L 111.958705 47.741119 
" clip-path="url(#pedd6ad6a44)" style="fill: none; stroke: #ff7f0e; stroke-width: 1.5"/>
    <path d="M 124.944886 84.193805 
L 124.944886 35.24329 
" clip-path="url(#pedd6ad6a44)" style="fill: none; stroke: #ff7f0e; stroke-width: 1.5"/>
    <path d="M 137.931068 85.511137 
L 137.931068 30.740816 
" clip-path="url(#pedd6ad6a44)" style="fill: none; stroke: #ff7f0e; stroke-width: 1.5"/>
    <path d="M 150.91725 85.311336 
L 150.91725 46.866328 
" clip-path="url(#pedd6ad6a44)" style="fill: none; stroke: #ff7f0e; stroke-width: 1.5"/>
    <path d="M 163.903432 117.543776 
L 163.903432 83.910727 
" clip-path="url(#pedd6ad6a44)" style="fill: none; stroke: #ff7f0e; stroke-width: 1.5"/>
    <path d="M 176.889614 164.6602 
L 176.889614 114.830284 
" clip-path="url(#pedd6ad6a44)" style="fill: none; stroke: #ff7f0e; stroke-width: 1.5"/>
    <path d="M 189.875795 200.095807 
L 189.875795 156.634372 
" clip-path="url(#pedd6ad6a44)" style="fill: none; stroke: #ff7f0e; stroke-width: 1.5"/>
    <path d="M 202.861977 238.557637 
L 202.861977 199.393664 
" clip-path="url(#pedd6ad6a44)" style="fill: none; stroke: #ff7f0e; stroke-width: 1.5"/>
    <path d="M 215.848159 255.739479 
L 215.848159 237.951808 
" clip-path="url(#pedd6ad6a44)" style="fill: none; stroke: #ff7f0e; stroke-width: 1.5"/>
    <path d="M 228.834341 258.706247 
L 228.834341 249.318179 
" clip-path="url(#pedd6ad6a44)" style="fill: none; stroke: #ff7f0e; stroke-width: 1.5"/>
    <path d="M 241.820523 258.391784 
L 241.820523 258.391784 
" clip-path="url(#pedd6ad6a44)" style="fill: none; stroke: #ff7f0e; stroke-width: 1.5"/>
    <path d="M 254.806705 258.391784 
L 254.806705 258.391784 
" clip-path="url(#pedd6ad6a44)" style="fill: none; stroke: #ff7f0e; stroke-width: 1.5"/>
    <path d="M 267.792886 258.391784 
L 267.792886 258.391784 
" clip-path="url(#pedd6ad6a44)" style="fill: none; stroke: #ff7f0e; stroke-width: 1.5"/>
    <path d="M 280.779068 258.391784 
L 280.779068 258.391784 
" clip-path="url(#pedd6ad6a44)" style="fill: none; stroke: #ff7f0e; stroke-width: 1.5"/>
   </g>
   <g id="LineCollection_3">
    <path d="M 137.931068 87.400527 
L 137.931068 19.296 
" clip-path="url(#pedd6ad6a44)" style="fill: none; stroke: #2ca02c; stroke-width: 1.5"/>
    <path d="M 150.91725 86.319765 
L 150.91725 39.487615 
" clip-path="url(#pedd6ad6a44)" style="fill: none; stroke: #2ca02c; stroke-width: 1.5"/>
    <path d="M 163.903432 94.058161 
L 163.903432 44.489787 
" clip-path="url(#pedd6ad6a44)" style="fill: none; stroke: #2ca02c; stroke-width: 1.5"/>
    <path d="M 176.889614 102.704866 
L 176.889614 42.213366 
" clip-path="url(#pedd6ad6a44)" style="fill: none; stroke: #2ca02c; stroke-width: 1.5"/>
    <path d="M 189.875795 100.674107 
L 189.875795 53.003266 
" clip-path="url(#pedd6ad6a44)" style="fill: none; stroke: #2ca02c; stroke-width: 1.5"/>
    <path d="M 202.861977 127.986042 
L 202.861977 79.838745 
" clip-path="url(#pedd6ad6a44)" style="fill: none; stroke: #2ca02c; stroke-width: 1.5"/>
    <path d="M 215.848159 172.15316 
L 215.848159 108.929895 
" clip-path="url(#pedd6ad6a44)" style="fill: none; stroke: #2ca02c; stroke-width: 1.5"/>
    <path d="M 228.834341 210.687644 
L 228.834341 171.523671 
" clip-path="url(#pedd6ad6a44)" style="fill: none; stroke: #2ca02c; stroke-width: 1.5"/>
    <path d="M 241.820523 232.527064 
L 241.820523 199.850238 
" clip-path="url(#pedd6ad6a44)" style="fill: none; stroke: #2ca02c; stroke-width: 1.5"/>
    <path d="M 254.806705 256.308257 
L 254.806705 234.197888 
" clip-path="url(#pedd6ad6a44)" style="fill: none; stroke: #2ca02c; stroke-width: 1.5"/>
    <path d="M 267.792886 261.216 
L 267.792886 248.400997 
" clip-path="url(#pedd6ad6a44)" style="fill: none; stroke: #2ca02c; stroke-width: 1.5"/>
    <path d="M 280.779068 260.859488 
L 280.779068 252.738937 
" clip-path="url(#pedd6ad6a44)" style="fill: none; stroke: #2ca02c; stroke-width: 1.5"/>
    <path d="M 293.76525 258.391784 
L 293.76525 258.391784 
" clip-path="url(#pedd6ad6a44)" style="fill: none; stroke: #2ca02c; stroke-width: 1.5"/>
    <path d="M 306.751432 258.391784 
L 306.751432 258.391784 
" clip-path="url(#pedd6ad6a44)" style="fill: none; stroke: #2ca02c; stroke-width: 1.5"/>
    <path d="M 319.737614 258.391784 
L 319.737614 258.391784 
" clip-path="url(#pedd6ad6a44)" style="fill: none; stroke: #2ca02c; stroke-width: 1.5"/>
   </g>
   <g id="LineCollection_4">
    <path d="M 163.903432 84.923686 
L 163.903432 43.272549 
" clip-path="url(#pedd6ad6a44)" style="fill: none; stroke: #d62728; stroke-width: 1.5"/>
    <path d="M 176.889614 88.944568 
L 176.889614 45.621952 
" clip-path="url(#pedd6ad6a44)" style="fill: none; stroke: #d62728; stroke-width: 1.5"/>
    <path d="M 189.875795 99.317898 
L 189.875795 36.841193 
" clip-path="url(#pedd6ad6a44)" style="fill: none; stroke: #d62728; stroke-width: 1.5"/>
    <path d="M 202.861977 95.898807 
L 202.861977 52.204567 
" clip-path="url(#pedd6ad6a44)" style="fill: none; stroke: #d62728; stroke-width: 1.5"/>
    <path d="M 215.848159 116.058764 
L 215.848159 76.636599 
" clip-path="url(#pedd6ad6a44)" style="fill: none; stroke: #d62728; stroke-width: 1.5"/>
    <path d="M 228.834341 124.620987 
L 228.834341 63.296662 
" clip-path="url(#pedd6ad6a44)" style="fill: none; stroke: #d62728; stroke-width: 1.5"/>
    <path d="M 241.820523 161.287259 
L 241.820523 123.777224 
" clip-path="url(#pedd6ad6a44)" style="fill: none; stroke: #d62728; stroke-width: 1.5"/>
    <path d="M 254.806705 202.332033 
L 254.806705 171.916427 
" clip-path="url(#pedd6ad6a44)" style="fill: none; stroke: #d62728; stroke-width: 1.5"/>
    <path d="M 267.792886 234.515277 
L 267.792886 208.213737 
" clip-path="url(#pedd6ad6a44)" style="fill: none; stroke: #d62728; stroke-width: 1.5"/>
    <path d="M 280.779068 248.515218 
L 280.779068 234.028072 
" clip-path="url(#pedd6ad6a44)" style="fill: none; stroke: #d62728; stroke-width: 1.5"/>
    <path d="M 293.76525 260.670675 
L 293.76525 252.131464 
" clip-path="url(#pedd6ad6a44)" style="fill: none; stroke: #d62728; stroke-width: 1.5"/>
    <path d="M 306.751432 260.859488 
L 306.751432 252.738937 
" clip-path="url(#pedd6ad6a44)" style="fill: none; stroke: #d62728; stroke-width: 1.5"/>
    <path d="M 319.737614 258.391784 
L 319.737614 258.391784 
" clip-path="url(#pedd6ad6a44)" style="fill: none; stroke: #d62728; stroke-width: 1.5"/>
    <path d="M 332.723795 258.391784 
L 332.723795 258.391784 
" clip-path="url(#pedd6ad6a44)" style="fill: none; stroke: #d62728; stroke-width: 1.5"/>
    <path d="M 345.709977 258.391784 
L 345.709977 258.391784 
" clip-path="url(#pedd6ad6a44)" style="fill: none; stroke: #d62728; stroke-width: 1.5"/>
   </g>
   <g id="LineCollection_5">
    <path d="M 202.861977 84.374944 
L 202.861977 34.265866 
" clip-path="url(#pedd6ad6a44)" style="fill: none; stroke: #9467bd; stroke-width: 1.5"/>
    <path d="M 215.848159 83.233089 
L 215.848159 30.630008 
" clip-path="url(#pedd6ad6a44)" style="fill: none; stroke: #9467bd; stroke-width: 1.5"/>
    <path d="M 228.834341 97.151339 
L 228.834341 32.637468 
" clip-path="url(#pedd6ad6a44)" style="fill: none; stroke: #9467bd; stroke-width: 1.5"/>
    <path d="M 241.820523 88.545465 
L 241.820523 38.0582 
" clip-path="url(#pedd6ad6a44)" style="fill: none; stroke: #9467bd; stroke-width: 1.5"/>
    <path d="M 254.806705 107.361637 
L 254.806705 54.27859 
" clip-path="url(#pedd6ad6a44)" style="fill: none; stroke: #9467bd; stroke-width: 1.5"/>
    <path d="M 267.792886 133.540373 
L 267.792886 75.876985 
" clip-path="url(#pedd6ad6a44)" style="fill: none; stroke: #9467bd; stroke-width: 1.5"/>
    <path d="M 280.779068 165.204651 
L 280.779068 121.452403 
" clip-path="url(#pedd6ad6a44)" style="fill: none; stroke: #9467bd; stroke-width: 1.5"/>
    <path d="M 293.76525 199.048189 
L 293.76525 160.070846 
" clip-path="url(#pedd6ad6a44)" style="fill: none; stroke: #9467bd; stroke-width: 1.5"/>
    <path d="M 306.751432 230.983359 
L 306.751432 193.431088 
" clip-path="url(#pedd6ad6a44)" style="fill: none; stroke: #9467bd; stroke-width: 1.5"/>
    <path d="M 319.737614 252.323362 
L 319.737614 231.016214 
" clip-path="url(#pedd6ad6a44)" style="fill: none; stroke: #9467bd; stroke-width: 1.5"/>
    <path d="M 332.723795 259.752002 
L 332.723795 249.06871 
" clip-path="url(#pedd6ad6a44)" style="fill: none; stroke: #9467bd; stroke-width: 1.5"/>
    <path d="M 345.709977 259.729105 
L 345.709977 256.258177 
" clip-path="url(#pedd6ad6a44)" style="fill: none; stroke: #9467bd; stroke-width: 1.5"/>
    <path d="M 358.696159 259.729105 
L 358.696159 256.258177 
" clip-path="url(#pedd6ad6a44)" style="fill: none; stroke: #9467bd; stroke-width: 1.5"/>
    <path d="M 371.682341 258.391784 
L 371.682341 258.391784 
" clip-path="url(#pedd6ad6a44)" style="fill: none; stroke: #9467bd; stroke-width: 1.5"/>
    <path d="M 384.668523 258.391784 
L 384.668523 258.391784 
" clip-path="url(#pedd6ad6a44)" style="fill: none; stroke: #9467bd; stroke-width: 1.5"/>
   </g>
   <g id="line2d_13">
    <path d="M 60.013977 59.320405 
L 73.000159 62.107404 
L 85.986341 52.153835 
L 98.972523 62.107404 
L 111.958705 66.486974 
L 124.944886 86.394112 
L 137.931068 130.189816 
L 150.91725 182.74466 
L 163.903432 223.753364 
L 176.889614 250.030786 
L 189.875795 256.40107 
L 202.861977 258.391784 
L 215.848159 258.391784 
L 228.834341 258.391784 
L 241.820523 258.391784 
" clip-path="url(#pedd6ad6a44)" style="fill: none; stroke: #1f77b4; stroke-width: 1.5; stroke-linecap: square"/>
    <defs>
     <path id="m721f6c0755" d="M 0 -3 
L -3 3 
L 3 3 
z
" style="stroke: #1f77b4; stroke-linejoin: miter"/>
    </defs>
    <g clip-path="url(#pedd6ad6a44)">
     <use xlink:href="#m721f6c0755" x="60.013977" y="59.320405" style="fill: #1f77b4; stroke: #1f77b4; stroke-linejoin: miter"/>
     <use xlink:href="#m721f6c0755" x="73.000159" y="62.107404" style="fill: #1f77b4; stroke: #1f77b4; stroke-linejoin: miter"/>
     <use xlink:href="#m721f6c0755" x="85.986341" y="52.153835" style="fill: #1f77b4; stroke: #1f77b4; stroke-linejoin: miter"/>
     <use xlink:href="#m721f6c0755" x="98.972523" y="62.107404" style="fill: #1f77b4; stroke: #1f77b4; stroke-linejoin: miter"/>
     <use xlink:href="#m721f6c0755" x="111.958705" y="66.486974" style="fill: #1f77b4; stroke: #1f77b4; stroke-linejoin: miter"/>
     <use xlink:href="#m721f6c0755" x="124.944886" y="86.394112" style="fill: #1f77b4; stroke: #1f77b4; stroke-linejoin: miter"/>
     <use xlink:href="#m721f6c0755" x="137.931068" y="130.189816" style="fill: #1f77b4; stroke: #1f77b4; stroke-linejoin: miter"/>
     <use xlink:href="#m721f6c0755" x="150.91725" y="182.74466" style="fill: #1f77b4; stroke: #1f77b4; stroke-linejoin: miter"/>
     <use xlink:href="#m721f6c0755" x="163.903432" y="223.753364" style="fill: #1f77b4; stroke: #1f77b4; stroke-linejoin: miter"/>
     <use xlink:href="#m721f6c0755" x="176.889614" y="250.030786" style="fill: #1f77b4; stroke: #1f77b4; stroke-linejoin: miter"/>
     <use xlink:href="#m721f6c0755" x="189.875795" y="256.40107" style="fill: #1f77b4; stroke: #1f77b4; stroke-linejoin: miter"/>
     <use xlink:href="#m721f6c0755" x="202.861977" y="258.391784" style="fill: #1f77b4; stroke: #1f77b4; stroke-linejoin: miter"/>
     <use xlink:href="#m721f6c0755" x="215.848159" y="258.391784" style="fill: #1f77b4; stroke: #1f77b4; stroke-linejoin: miter"/>
     <use xlink:href="#m721f6c0755" x="228.834341" y="258.391784" style="fill: #1f77b4; stroke: #1f77b4; stroke-linejoin: miter"/>
     <use xlink:href="#m721f6c0755" x="241.820523" y="258.391784" style="fill: #1f77b4; stroke: #1f77b4; stroke-linejoin: miter"/>
    </g>
   </g>
   <g id="line2d_14">
    <path d="M 98.972523 66.885117 
L 111.958705 64.496261 
L 124.944886 59.718548 
L 137.931068 58.125977 
L 150.91725 66.088832 
L 163.903432 100.727252 
L 176.889614 139.745242 
L 189.875795 178.365089 
L 202.861977 218.975651 
L 215.848159 246.845644 
L 228.834341 254.012213 
L 241.820523 258.391784 
L 254.806705 258.391784 
L 267.792886 258.391784 
L 280.779068 258.391784 
" clip-path="url(#pedd6ad6a44)" style="fill: none; stroke: #ff7f0e; stroke-width: 1.5; stroke-linecap: square"/>
    <defs>
     <path id="m82eac38fb4" d="M 0 -3 
L -3 3 
L 3 3 
z
" style="stroke: #ff7f0e; stroke-linejoin: miter"/>
    </defs>
    <g clip-path="url(#pedd6ad6a44)">
     <use xlink:href="#m82eac38fb4" x="98.972523" y="66.885117" style="fill: #ff7f0e; stroke: #ff7f0e; stroke-linejoin: miter"/>
     <use xlink:href="#m82eac38fb4" x="111.958705" y="64.496261" style="fill: #ff7f0e; stroke: #ff7f0e; stroke-linejoin: miter"/>
     <use xlink:href="#m82eac38fb4" x="124.944886" y="59.718548" style="fill: #ff7f0e; stroke: #ff7f0e; stroke-linejoin: miter"/>
     <use xlink:href="#m82eac38fb4" x="137.931068" y="58.125977" style="fill: #ff7f0e; stroke: #ff7f0e; stroke-linejoin: miter"/>
     <use xlink:href="#m82eac38fb4" x="150.91725" y="66.088832" style="fill: #ff7f0e; stroke: #ff7f0e; stroke-linejoin: miter"/>
     <use xlink:href="#m82eac38fb4" x="163.903432" y="100.727252" style="fill: #ff7f0e; stroke: #ff7f0e; stroke-linejoin: miter"/>
     <use xlink:href="#m82eac38fb4" x="176.889614" y="139.745242" style="fill: #ff7f0e; stroke: #ff7f0e; stroke-linejoin: miter"/>
     <use xlink:href="#m82eac38fb4" x="189.875795" y="178.365089" style="fill: #ff7f0e; stroke: #ff7f0e; stroke-linejoin: miter"/>
     <use xlink:href="#m82eac38fb4" x="202.861977" y="218.975651" style="fill: #ff7f0e; stroke: #ff7f0e; stroke-linejoin: miter"/>
     <use xlink:href="#m82eac38fb4" x="215.848159" y="246.845644" style="fill: #ff7f0e; stroke: #ff7f0e; stroke-linejoin: miter"/>
     <use xlink:href="#m82eac38fb4" x="228.834341" y="254.012213" style="fill: #ff7f0e; stroke: #ff7f0e; stroke-linejoin: miter"/>
     <use xlink:href="#m82eac38fb4" x="241.820523" y="258.391784" style="fill: #ff7f0e; stroke: #ff7f0e; stroke-linejoin: miter"/>
     <use xlink:href="#m82eac38fb4" x="254.806705" y="258.391784" style="fill: #ff7f0e; stroke: #ff7f0e; stroke-linejoin: miter"/>
     <use xlink:href="#m82eac38fb4" x="267.792886" y="258.391784" style="fill: #ff7f0e; stroke: #ff7f0e; stroke-linejoin: miter"/>
     <use xlink:href="#m82eac38fb4" x="280.779068" y="258.391784" style="fill: #ff7f0e; stroke: #ff7f0e; stroke-linejoin: miter"/>
    </g>
   </g>
   <g id="line2d_15">
    <path d="M 137.931068 53.348263 
L 150.91725 62.90369 
L 163.903432 69.273974 
L 176.889614 72.459116 
L 189.875795 76.838686 
L 202.861977 103.912394 
L 215.848159 140.541527 
L 228.834341 191.105658 
L 241.820523 216.188651 
L 254.806705 245.253073 
L 267.792886 254.808499 
L 280.779068 256.799213 
L 293.76525 258.391784 
L 306.751432 258.391784 
L 319.737614 258.391784 
" clip-path="url(#pedd6ad6a44)" style="fill: none; stroke: #2ca02c; stroke-width: 1.5; stroke-linecap: square"/>
    <defs>
     <path id="mf33d603bc5" d="M 0 -3 
L -3 3 
L 3 3 
z
" style="stroke: #2ca02c; stroke-linejoin: miter"/>
    </defs>
    <g clip-path="url(#pedd6ad6a44)">
     <use xlink:href="#mf33d603bc5" x="137.931068" y="53.348263" style="fill: #2ca02c; stroke: #2ca02c; stroke-linejoin: miter"/>
     <use xlink:href="#mf33d603bc5" x="150.91725" y="62.90369" style="fill: #2ca02c; stroke: #2ca02c; stroke-linejoin: miter"/>
     <use xlink:href="#mf33d603bc5" x="163.903432" y="69.273974" style="fill: #2ca02c; stroke: #2ca02c; stroke-linejoin: miter"/>
     <use xlink:href="#mf33d603bc5" x="176.889614" y="72.459116" style="fill: #2ca02c; stroke: #2ca02c; stroke-linejoin: miter"/>
     <use xlink:href="#mf33d603bc5" x="189.875795" y="76.838686" style="fill: #2ca02c; stroke: #2ca02c; stroke-linejoin: miter"/>
     <use xlink:href="#mf33d603bc5" x="202.861977" y="103.912394" style="fill: #2ca02c; stroke: #2ca02c; stroke-linejoin: miter"/>
     <use xlink:href="#mf33d603bc5" x="215.848159" y="140.541527" style="fill: #2ca02c; stroke: #2ca02c; stroke-linejoin: miter"/>
     <use xlink:href="#mf33d603bc5" x="228.834341" y="191.105658" style="fill: #2ca02c; stroke: #2ca02c; stroke-linejoin: miter"/>
     <use xlink:href="#mf33d603bc5" x="241.820523" y="216.188651" style="fill: #2ca02c; stroke: #2ca02c; stroke-linejoin: miter"/>
     <use xlink:href="#mf33d603bc5" x="254.806705" y="245.253073" style="fill: #2ca02c; stroke: #2ca02c; stroke-linejoin: miter"/>
     <use xlink:href="#mf33d603bc5" x="267.792886" y="254.808499" style="fill: #2ca02c; stroke: #2ca02c; stroke-linejoin: miter"/>
     <use xlink:href="#mf33d603bc5" x="280.779068" y="256.799213" style="fill: #2ca02c; stroke: #2ca02c; stroke-linejoin: miter"/>
     <use xlink:href="#mf33d603bc5" x="293.76525" y="258.391784" style="fill: #2ca02c; stroke: #2ca02c; stroke-linejoin: miter"/>
     <use xlink:href="#mf33d603bc5" x="306.751432" y="258.391784" style="fill: #2ca02c; stroke: #2ca02c; stroke-linejoin: miter"/>
     <use xlink:href="#mf33d603bc5" x="319.737614" y="258.391784" style="fill: #2ca02c; stroke: #2ca02c; stroke-linejoin: miter"/>
    </g>
   </g>
   <g id="line2d_16">
    <path d="M 163.903432 64.098118 
L 176.889614 67.28326 
L 189.875795 68.079546 
L 202.861977 74.051687 
L 215.848159 96.347681 
L 228.834341 93.958825 
L 241.820523 142.532241 
L 254.806705 187.12423 
L 267.792886 221.364507 
L 280.779068 241.271645 
L 293.76525 256.40107 
L 306.751432 256.799213 
L 319.737614 258.391784 
L 332.723795 258.391784 
L 345.709977 258.391784 
" clip-path="url(#pedd6ad6a44)" style="fill: none; stroke: #d62728; stroke-width: 1.5; stroke-linecap: square"/>
    <defs>
     <path id="md8feabc80f" d="M 0 -3 
L -3 3 
L 3 3 
z
" style="stroke: #d62728; stroke-linejoin: miter"/>
    </defs>
    <g clip-path="url(#pedd6ad6a44)">
     <use xlink:href="#md8feabc80f" x="163.903432" y="64.098118" style="fill: #d62728; stroke: #d62728; stroke-linejoin: miter"/>
     <use xlink:href="#md8feabc80f" x="176.889614" y="67.28326" style="fill: #d62728; stroke: #d62728; stroke-linejoin: miter"/>
     <use xlink:href="#md8feabc80f" x="189.875795" y="68.079546" style="fill: #d62728; stroke: #d62728; stroke-linejoin: miter"/>
     <use xlink:href="#md8feabc80f" x="202.861977" y="74.051687" style="fill: #d62728; stroke: #d62728; stroke-linejoin: miter"/>
     <use xlink:href="#md8feabc80f" x="215.848159" y="96.347681" style="fill: #d62728; stroke: #d62728; stroke-linejoin: miter"/>
     <use xlink:href="#md8feabc80f" x="228.834341" y="93.958825" style="fill: #d62728; stroke: #d62728; stroke-linejoin: miter"/>
     <use xlink:href="#md8feabc80f" x="241.820523" y="142.532241" style="fill: #d62728; stroke: #d62728; stroke-linejoin: miter"/>
     <use xlink:href="#md8feabc80f" x="254.806705" y="187.12423" style="fill: #d62728; stroke: #d62728; stroke-linejoin: miter"/>
     <use xlink:href="#md8feabc80f" x="267.792886" y="221.364507" style="fill: #d62728; stroke: #d62728; stroke-linejoin: miter"/>
     <use xlink:href="#md8feabc80f" x="280.779068" y="241.271645" style="fill: #d62728; stroke: #d62728; stroke-linejoin: miter"/>
     <use xlink:href="#md8feabc80f" x="293.76525" y="256.40107" style="fill: #d62728; stroke: #d62728; stroke-linejoin: miter"/>
     <use xlink:href="#md8feabc80f" x="306.751432" y="256.799213" style="fill: #d62728; stroke: #d62728; stroke-linejoin: miter"/>
     <use xlink:href="#md8feabc80f" x="319.737614" y="258.391784" style="fill: #d62728; stroke: #d62728; stroke-linejoin: miter"/>
     <use xlink:href="#md8feabc80f" x="332.723795" y="258.391784" style="fill: #d62728; stroke: #d62728; stroke-linejoin: miter"/>
     <use xlink:href="#md8feabc80f" x="345.709977" y="258.391784" style="fill: #d62728; stroke: #d62728; stroke-linejoin: miter"/>
    </g>
   </g>
   <g id="line2d_17">
    <path d="M 202.861977 59.320405 
L 215.848159 56.931548 
L 228.834341 64.894403 
L 241.820523 63.301832 
L 254.806705 80.820114 
L 267.792886 104.708679 
L 280.779068 143.328527 
L 293.76525 179.559518 
L 306.751432 212.207224 
L 319.737614 241.669788 
L 332.723795 254.410356 
L 345.709977 257.993641 
L 358.696159 257.993641 
L 371.682341 258.391784 
L 384.668523 258.391784 
" clip-path="url(#pedd6ad6a44)" style="fill: none; stroke: #9467bd; stroke-width: 1.5; stroke-linecap: square"/>
    <defs>
     <path id="m48df948127" d="M 0 -3 
L -3 3 
L 3 3 
z
" style="stroke: #9467bd; stroke-linejoin: miter"/>
    </defs>
    <g clip-path="url(#pedd6ad6a44)">
     <use xlink:href="#m48df948127" x="202.861977" y="59.320405" style="fill: #9467bd; stroke: #9467bd; stroke-linejoin: miter"/>
     <use xlink:href="#m48df948127" x="215.848159" y="56.931548" style="fill: #9467bd; stroke: #9467bd; stroke-linejoin: miter"/>
     <use xlink:href="#m48df948127" x="228.834341" y="64.894403" style="fill: #9467bd; stroke: #9467bd; stroke-linejoin: miter"/>
     <use xlink:href="#m48df948127" x="241.820523" y="63.301832" style="fill: #9467bd; stroke: #9467bd; stroke-linejoin: miter"/>
     <use xlink:href="#m48df948127" x="254.806705" y="80.820114" style="fill: #9467bd; stroke: #9467bd; stroke-linejoin: miter"/>
     <use xlink:href="#m48df948127" x="267.792886" y="104.708679" style="fill: #9467bd; stroke: #9467bd; stroke-linejoin: miter"/>
     <use xlink:href="#m48df948127" x="280.779068" y="143.328527" style="fill: #9467bd; stroke: #9467bd; stroke-linejoin: miter"/>
     <use xlink:href="#m48df948127" x="293.76525" y="179.559518" style="fill: #9467bd; stroke: #9467bd; stroke-linejoin: miter"/>
     <use xlink:href="#m48df948127" x="306.751432" y="212.207224" style="fill: #9467bd; stroke: #9467bd; stroke-linejoin: miter"/>
     <use xlink:href="#m48df948127" x="319.737614" y="241.669788" style="fill: #9467bd; stroke: #9467bd; stroke-linejoin: miter"/>
     <use xlink:href="#m48df948127" x="332.723795" y="254.410356" style="fill: #9467bd; stroke: #9467bd; stroke-linejoin: miter"/>
     <use xlink:href="#m48df948127" x="345.709977" y="257.993641" style="fill: #9467bd; stroke: #9467bd; stroke-linejoin: miter"/>
     <use xlink:href="#m48df948127" x="358.696159" y="257.993641" style="fill: #9467bd; stroke: #9467bd; stroke-linejoin: miter"/>
     <use xlink:href="#m48df948127" x="371.682341" y="258.391784" style="fill: #9467bd; stroke: #9467bd; stroke-linejoin: miter"/>
     <use xlink:href="#m48df948127" x="384.668523" y="258.391784" style="fill: #9467bd; stroke: #9467bd; stroke-linejoin: miter"/>
    </g>
   </g>
   <g id="patch_3">
    <path d="M 43.78125 273.312 
L 43.78125 7.2 
" style="fill: none; stroke: #000000; stroke-width: 0.8; stroke-linejoin: miter; stroke-linecap: square"/>
   </g>
   <g id="patch_4">
    <path d="M 400.90125 273.312 
L 400.90125 7.2 
" style="fill: none; stroke: #000000; stroke-width: 0.8; stroke-linejoin: miter; stroke-linecap: square"/>
   </g>
   <g id="patch_5">
    <path d="M 43.78125 273.312 
L 400.90125 273.312 
" style="fill: none; stroke: #000000; stroke-width: 0.8; stroke-linejoin: miter; stroke-linecap: square"/>
   </g>
   <g id="patch_6">
    <path d="M 43.78125 7.2 
L 400.90125 7.2 
" style="fill: none; stroke: #000000; stroke-width: 0.8; stroke-linejoin: miter; stroke-linecap: square"/>
   </g>
   <g id="legend_1">
    <g id="patch_7">
     <path d="M 321.729375 88.590625 
L 393.90125 88.590625 
Q 395.90125 88.590625 395.90125 86.590625 
L 395.90125 14.2 
Q 395.90125 12.2 393.90125 12.2 
L 321.729375 12.2 
Q 319.729375 12.2 319.729375 14.2 
L 319.729375 86.590625 
Q 319.729375 88.590625 321.729375 88.590625 
z
" style="fill: #ffffff; opacity: 0.8; stroke: #cccccc; stroke-linejoin: miter"/>
    </g>
    <g id="LineCollection_6">
     <path d="M 333.729375 25.298437 
L 333.729375 15.298437 
" style="fill: none; stroke: #1f77b4; stroke-width: 1.5"/>
    </g>
    <g id="line2d_18">
     <path d="M 323.729375 20.298437 
L 343.729375 20.298437 
" style="fill: none; stroke: #1f77b4; stroke-width: 1.5; stroke-linecap: square"/>
    </g>
    <g id="line2d_19">
     <g>
      <use xlink:href="#m721f6c0755" x="333.729375" y="20.298437" style="fill: #1f77b4; stroke: #1f77b4; stroke-linejoin: miter"/>
     </g>
    </g>
    <g id="text_15">
     <!-- q = 103 -->
     <g transform="translate(351.729375 23.798437) scale(0.1 -0.1)">
      <defs>
       <path id="DejaVuSans-71" d="M 947 1747 
Q 947 1113 1208 752 
Q 1469 391 1925 391 
Q 2381 391 2643 752 
Q 2906 1113 2906 1747 
Q 2906 2381 2643 2742 
Q 2381 3103 1925 3103 
Q 1469 3103 1208 2742 
Q 947 2381 947 1747 
z
M 2906 525 
Q 2725 213 2448 61 
Q 2172 -91 1784 -91 
Q 1150 -91 751 415 
Q 353 922 353 1747 
Q 353 2572 751 3078 
Q 1150 3584 1784 3584 
Q 2172 3584 2448 3432 
Q 2725 3281 2906 2969 
L 2906 3500 
L 3481 3500 
L 3481 -1331 
L 2906 -1331 
L 2906 525 
z
" transform="scale(0.015625)"/>
       <path id="DejaVuSans-3d" d="M 678 2906 
L 4684 2906 
L 4684 2381 
L 678 2381 
L 678 2906 
z
M 678 1631 
L 4684 1631 
L 4684 1100 
L 678 1100 
L 678 1631 
z
" transform="scale(0.015625)"/>
      </defs>
      <use xlink:href="#DejaVuSans-71"/>
      <use xlink:href="#DejaVuSans-20" x="63.476562"/>
      <use xlink:href="#DejaVuSans-3d" x="95.263672"/>
      <use xlink:href="#DejaVuSans-20" x="179.052734"/>
      <use xlink:href="#DejaVuSans-31" x="210.839844"/>
      <use xlink:href="#DejaVuSans-30" x="274.462891"/>
      <use xlink:href="#DejaVuSans-33" x="338.085938"/>
     </g>
    </g>
    <g id="LineCollection_7">
     <path d="M 333.729375 39.976562 
L 333.729375 29.976562 
" style="fill: none; stroke: #ff7f0e; stroke-width: 1.5"/>
    </g>
    <g id="line2d_20">
     <path d="M 323.729375 34.976562 
L 343.729375 34.976562 
" style="fill: none; stroke: #ff7f0e; stroke-width: 1.5; stroke-linecap: square"/>
    </g>
    <g id="line2d_21">
     <g>
      <use xlink:href="#m82eac38fb4" x="333.729375" y="34.976562" style="fill: #ff7f0e; stroke: #ff7f0e; stroke-linejoin: miter"/>
     </g>
    </g>
    <g id="text_16">
     <!-- q = 127 -->
     <g transform="translate(351.729375 38.476562) scale(0.1 -0.1)">
      <defs>
       <path id="DejaVuSans-37" d="M 525 4666 
L 3525 4666 
L 3525 4397 
L 1831 0 
L 1172 0 
L 2766 4134 
L 525 4134 
L 525 4666 
z
" transform="scale(0.015625)"/>
      </defs>
      <use xlink:href="#DejaVuSans-71"/>
      <use xlink:href="#DejaVuSans-20" x="63.476562"/>
      <use xlink:href="#DejaVuSans-3d" x="95.263672"/>
      <use xlink:href="#DejaVuSans-20" x="179.052734"/>
      <use xlink:href="#DejaVuSans-31" x="210.839844"/>
      <use xlink:href="#DejaVuSans-32" x="274.462891"/>
      <use xlink:href="#DejaVuSans-37" x="338.085938"/>
     </g>
    </g>
    <g id="LineCollection_8">
     <path d="M 333.729375 54.654687 
L 333.729375 44.654687 
" style="fill: none; stroke: #2ca02c; stroke-width: 1.5"/>
    </g>
    <g id="line2d_22">
     <path d="M 323.729375 49.654687 
L 343.729375 49.654687 
" style="fill: none; stroke: #2ca02c; stroke-width: 1.5; stroke-linecap: square"/>
    </g>
    <g id="line2d_23">
     <g>
      <use xlink:href="#mf33d603bc5" x="333.729375" y="49.654687" style="fill: #2ca02c; stroke: #2ca02c; stroke-linejoin: miter"/>
     </g>
    </g>
    <g id="text_17">
     <!-- q = 151 -->
     <g transform="translate(351.729375 53.154687) scale(0.1 -0.1)">
      <use xlink:href="#DejaVuSans-71"/>
      <use xlink:href="#DejaVuSans-20" x="63.476562"/>
      <use xlink:href="#DejaVuSans-3d" x="95.263672"/>
      <use xlink:href="#DejaVuSans-20" x="179.052734"/>
      <use xlink:href="#DejaVuSans-31" x="210.839844"/>
      <use xlink:href="#DejaVuSans-35" x="274.462891"/>
      <use xlink:href="#DejaVuSans-31" x="338.085938"/>
     </g>
    </g>
    <g id="LineCollection_9">
     <path d="M 333.729375 69.332812 
L 333.729375 59.332812 
" style="fill: none; stroke: #d62728; stroke-width: 1.5"/>
    </g>
    <g id="line2d_24">
     <path d="M 323.729375 64.332812 
L 343.729375 64.332812 
" style="fill: none; stroke: #d62728; stroke-width: 1.5; stroke-linecap: square"/>
    </g>
    <g id="line2d_25">
     <g>
      <use xlink:href="#md8feabc80f" x="333.729375" y="64.332812" style="fill: #d62728; stroke: #d62728; stroke-linejoin: miter"/>
     </g>
    </g>
    <g id="text_18">
     <!-- q = 167 -->
     <g transform="translate(351.729375 67.832812) scale(0.1 -0.1)">
      <use xlink:href="#DejaVuSans-71"/>
      <use xlink:href="#DejaVuSans-20" x="63.476562"/>
      <use xlink:href="#DejaVuSans-3d" x="95.263672"/>
      <use xlink:href="#DejaVuSans-20" x="179.052734"/>
      <use xlink:href="#DejaVuSans-31" x="210.839844"/>
      <use xlink:href="#DejaVuSans-36" x="274.462891"/>
      <use xlink:href="#DejaVuSans-37" x="338.085938"/>
     </g>
    </g>
    <g id="LineCollection_10">
     <path d="M 333.729375 84.010937 
L 333.729375 74.010937 
" style="fill: none; stroke: #9467bd; stroke-width: 1.5"/>
    </g>
    <g id="line2d_26">
     <path d="M 323.729375 79.010937 
L 343.729375 79.010937 
" style="fill: none; stroke: #9467bd; stroke-width: 1.5; stroke-linecap: square"/>
    </g>
    <g id="line2d_27">
     <g>
      <use xlink:href="#m48df948127" x="333.729375" y="79.010937" style="fill: #9467bd; stroke: #9467bd; stroke-linejoin: miter"/>
     </g>
    </g>
    <g id="text_19">
     <!-- q = 191 -->
     <g transform="translate(351.729375 82.510937) scale(0.1 -0.1)">
      <defs>
       <path id="DejaVuSans-39" d="M 703 97 
L 703 672 
Q 941 559 1184 500 
Q 1428 441 1663 441 
Q 2288 441 2617 861 
Q 2947 1281 2994 2138 
Q 2813 1869 2534 1725 
Q 2256 1581 1919 1581 
Q 1219 1581 811 2004 
Q 403 2428 403 3163 
Q 403 3881 828 4315 
Q 1253 4750 1959 4750 
Q 2769 4750 3195 4129 
Q 3622 3509 3622 2328 
Q 3622 1225 3098 567 
Q 2575 -91 1691 -91 
Q 1453 -91 1209 -44 
Q 966 3 703 97 
z
M 1959 2075 
Q 2384 2075 2632 2365 
Q 2881 2656 2881 3163 
Q 2881 3666 2632 3958 
Q 2384 4250 1959 4250 
Q 1534 4250 1286 3958 
Q 1038 3666 1038 3163 
Q 1038 2656 1286 2365 
Q 1534 2075 1959 2075 
z
" transform="scale(0.015625)"/>
      </defs>
      <use xlink:href="#DejaVuSans-71"/>
      <use xlink:href="#DejaVuSans-20" x="63.476562"/>
      <use xlink:href="#DejaVuSans-3d" x="95.263672"/>
      <use xlink:href="#DejaVuSans-20" x="179.052734"/>
      <use xlink:href="#DejaVuSans-31" x="210.839844"/>
      <use xlink:href="#DejaVuSans-39" x="274.462891"/>
      <use xlink:href="#DejaVuSans-31" x="338.085938"/>
     </g>
    </g>
   </g>
  </g>
 </g>
 <defs>
  <clipPath id="pedd6ad6a44">
   <rect x="43.78125" y="7.2" width="357.12" height="266.112"/>
  </clipPath>
 </defs>
</svg>
